<svg id="Capa_1" data-name="Capa 1" xmlns="http://www.w3.org/2000/svg" viewBox="0 0 508.342 565.527"><defs><style>.cls-1{fill:#be9132}</style></defs><path class="cls-1" d="M201.413 225.246h82.5a17.521 17.521 0 0 0 17.5-17.5v-32.167a7.5 7.5 0 1 0-15 0v32.167a2.5 2.5 0 0 1-2.5 2.5h-82.5a2.5 2.5 0 0 1-2.5-2.5v-92.333a2.5 2.5 0 0 1 2.5-2.5h82.5a2.5 2.5 0 0 1 2.5 2.5v32.167a7.5 7.5 0 0 0 15 0v-32.167a17.521 17.521 0 0 0-17.5-17.5h-82.5a17.521 17.521 0 0 0-17.5 17.5v92.333a17.52 17.52 0 0 0 17.5 17.5zm142.5 0h82.5a17.521 17.521 0 0 0 17.5-17.5v-92.333a17.521 17.521 0 0 0-17.5-17.5h-82.5a17.521 17.521 0 0 0-17.5 17.5v92.333a17.52 17.52 0 0 0 17.5 17.5zm-2.5-109.833a2.5 2.5 0 0 1 2.5-2.5h82.5a2.5 2.5 0 0 1 2.5 2.5v92.333a2.5 2.5 0 0 1-2.5 2.5h-82.5a2.5 2.5 0 0 1-2.5-2.5z" transform="translate(-57.571 -4.386)"/><path class="cls-1" d="M483.913 307.15V115.413a57.565 57.565 0 0 0-57.5-57.5h-225a57.565 57.565 0 0 0-57.5 57.5V307.15a17.524 17.524 0 0 0-12.5 16.763v188.5a57.565 57.565 0 0 0 57.5 57.5h250a57.565 57.565 0 0 0 57.5-57.5v-188.5a17.526 17.526 0 0 0-12.5-16.763zm-282.5-234.237h225a42.548 42.548 0 0 1 42.5 42.5v191h-25v-38.667a17.521 17.521 0 0 0-17.5-17.5h-82.5a17.521 17.521 0 0 0-17.5 17.5v38.667h-25v-38.667a17.521 17.521 0 0 0-17.5-17.5h-82.5a17.521 17.521 0 0 0-17.5 17.5v38.667h-25v-191a42.548 42.548 0 0 1 42.5-42.5zm140 233.5v-38.667a2.5 2.5 0 0 1 2.5-2.5h82.5a2.5 2.5 0 0 1 2.5 2.5v38.667zm-142.5 0v-38.667a2.5 2.5 0 0 1 2.5-2.5h82.5a2.5 2.5 0 0 1 2.5 2.5v38.667zm240 248.5h-250a42.548 42.548 0 0 1-42.5-42.5V391.08h217.124a7.5 7.5 0 0 0 0-15H146.413v-52.167a2.5 2.5 0 0 1 2.5-2.5h330a2.5 2.5 0 0 1 2.5 2.5v52.167h-89.877a7.5 7.5 0 0 0 0 15h89.877v121.333a42.548 42.548 0 0 1-42.5 42.5z" transform="translate(-57.571 -4.386)"/><path class="cls-1" d="M328.124 455.715H299.7a10.482 10.482 0 0 0-10.47 10.47v9.947a24.681 24.681 0 1 0 49.362 0v-9.947a10.482 10.482 0 0 0-10.468-10.47zm-4.53 20.417a9.681 9.681 0 1 1-19.362 0v-5.417h19.361v5.417zm53.942-4.596a7.5 7.5 0 0 0 7.5-7.5v-11.355a7.5 7.5 0 0 0-15 0v11.355a7.5 7.5 0 0 0 7.5 7.5zm-127.246 0a7.5 7.5 0 0 0 7.5-7.5v-11.355a7.5 7.5 0 0 0-15 0v11.355a7.5 7.5 0 0 0 7.5 7.5zM383.207 478h-11.344a7.5 7.5 0 0 0 0 15h11.344a7.5 7.5 0 1 0 0-15zm-127.245 0h-11.344a7.5 7.5 0 1 0 0 15h11.344a7.5 7.5 0 0 0 0-15z" transform="translate(-57.571 -4.386)"/><path d="M481.342 35.657v42m21-21h-42m17.044 100.537v25.4m12.701-12.699h-25.4M81.864 27.054v25.4m12.701-12.698h-25.4M275.429 6v25.4m12.7-12.699h-25.4M27 121.614v42m21-21H6" stroke="#be9132" stroke-linecap="round" stroke-miterlimit="10" stroke-width="12" fill="#be9132"/></svg>