<svg id="Objects" xmlns="http://www.w3.org/2000/svg" viewBox="0 0 95.813 123.465"><defs><style>.cls-1{fill:#be9132}</style></defs><path class="cls-1" d="M312.578 384.156c-.988-.887-3.977-3.7-6.624-6.24s-9.216-8.574-14.587-13.4c-18.2-16.345-21.62-19.533-21.921-20.411-.181-.53-1.175-.708-5.307-.956-2.811-.167-5.714-.3-6.493-.3-1.237 0-1.672-.229-3.525-1.851-3.235-2.833-6.58-5.172-7.76-5.425-1.392-.3-2.184.249-7.012 4.822a60.321 60.321 0 0 1-5.559 4.789c-2.259 1.463-2.883 3.034-5.067 12.791-1.011 4.513-2.172 9.209-2.581 10.435s-1.209 3.961-1.793 6.126-1.649 5.984-2.391 8.581c-3.534 12.337-3.821 20.4-.955 26.759a3.524 3.524 0 0 1 .443 1.78q-.182.4 2.529 2.334c3.907 2.8 17.779 13.6 25.571 19.916 14.662 11.882 17.354 13.963 24.313 18.784a90.768 90.768 0 0 0 8.812 5.618 18.109 18.109 0 0 0 8.51.309c2.837-.588 6.961-3.214 8.3-5.285 1.725-2.672 2.549-8.325 1.475-10.12-.391-.656-.3-.892.751-1.967 1.608-1.642 2.842-3.585 4.586-7.212 1.034-2.151 1.68-3.118 2.291-3.428a1.823 1.823 0 0 0 1.008-1.666c.086-.68.524-4.491.981-8.521s1.18-9.293 1.623-11.776a96.875 96.875 0 0 0 1.773-16.445c.016-2.315.177-4.237.362-4.293.5-.154.725-1.218.368-1.7a27 27 0 0 0-2.117-2.045zm-1.307 3.229l-.169 1.3-.31-.832c-.583-1.57-7.274-8.361-7.861-7.981-.206.133-1.624-1.094-3.653-3.156a37.131 37.131 0 0 0-3.828-3.582c-.347-.14-.311-.017.111.385.34.324 3.123 3.182 6.17 6.336 6 6.207 6.261 6.463 6.338 6.17a11.965 11.965 0 0 0-1.71-2 12.289 12.289 0 0 1-1.712-2c.072-.3 2.522 2.173 4.653 4.686l2.064 2.438-.025 2.6c-.043 4.443-.585 8.4-2.306 16.946-.912 4.524-1.844 9.356-2.075 10.74l-.417 2.515-2.21-3.2-2.209-3.2 2.182 3.5 2.182 3.492-.222 1.892c-.228 1.936-.421 2.176-1.063 1.323a3.663 3.663 0 0 0-1.014-.813c-.366-.2-2.306-1.725-4.292-3.379a37.276 37.276 0 0 1-7.019-7.374 45.922 45.922 0 0 0-4.023-4.744c-.525-.323-.517-.262.04.37.372.421 1.462 1.834 2.454 3.178l1.786 2.42-1.622-1.335c-.89-.734-3.722-3.19-6.292-5.459-4.575-4.031-11.526-9.664-15.512-12.565-2.281-1.661-2.46-1.867-1.746-2.028.278-.063.433-.255.332-.411s-.493-.208-.864-.1q-1.406.4-.459-1.262c1.291-2.257 2.035-11.87 1.354-17.468a21.23 21.23 0 0 1-.275-3.695c.087-.068.617.434 1.173 1.108.968 1.173 1.026 1.461 1.243 6.247.127 2.778.386 5.89.582 6.974.347 1.921.342 1.938-.3.985a5.552 5.552 0 0 0-1.276-1.359c-.434-.268-.278.06.508 1.063.625.795 4.415 5.683 8.41 10.842 7.253 9.37 8.763 11.23 8.837 10.886.032-.148-7.331-9.715-12.305-15.989-.88-1.109-.438-.849 2.854 1.669 2.954 2.258 4.172 3.391 5.04 4.682a12.218 12.218 0 0 0 1.846 2.241c.467.354.25-.042-.641-1.174-.746-.948-1.248-1.687-1.123-1.656a101.534 101.534 0 0 1 9.013 8.15 4.848 4.848 0 0 0 1.66 1.443c.938.133 3.6 2.7 5.756 5.555 1.933 2.563 2.019 2.642.908.843l-1.226-1.988 1.788 1.226a12.356 12.356 0 0 1 2.722 2.609 13.024 13.024 0 0 0 1.715 2.068c.559.49.367.08-.67-1.434-1.319-1.928-1.408-2.166-.968-2.631a20.315 20.315 0 0 0 .92-5.285c.726-7.9.79-8.446.984-8.4a7.292 7.292 0 0 1 1.256 1.112c1 1.016.99.989-.168-.567-1.077-1.447-1.189-1.752-.971-2.667l.244-1.034 1.737 1.917c.954 1.052 1.754 1.814 1.772 1.693a13.318 13.318 0 0 0-1.754-2.281c-1.416-1.626-1.776-2.192-1.723-2.7.122-1.165.452-.969 2.237 1.331a9.667 9.667 0 0 0 1.927 2.131 12.918 12.918 0 0 0-1.865-2.726c-1.923-2.451-2.04-2.677-1.953-3.722l.093-1.113 1.233 1.505a11.707 11.707 0 0 0 1.861 1.894c.417.254.255-.046-.473-.885a35.3 35.3 0 0 1-2.511-3.54 13.951 13.951 0 0 0-3.027-3.6 76.839 76.839 0 0 1-5.532-5.754c-2.147-2.423-4-4.438-4.093-4.463-.4-.1.783 1.4 3.3 4.18a38.747 38.747 0 0 1 2.587 3.013c-.04.233-2.545-2.008-6-5.372a86.139 86.139 0 0 0-7.339-6.172c-2.294-1.694-5.2-3.91-6.479-4.942-3.445-2.777-4.9-3.681-6.266-3.91-1.113-.185-1.468-.48-3.339-2.765l-2.1-2.557.384-4.38c.209-2.4.453-4.522.537-4.695.259-.534 5.32 3.247 9.16 6.84 1.1 1.032 6.327 5.8 11.593 10.571 7.714 7 13.306 12.164 21.485 19.859a4.115 4.115 0 0 1-.045 1.42zm-7.522 5.109l-.123 1.034-.6-.9c-.482-.721-.492-.973-.043-1.263.716-.464.923-.16.768 1.131zm-2.833-3.768c-.546.353-1.928-.461-2.635-1.552-.308-.476-.259-.549.324-.48a6.373 6.373 0 0 1 2.7 1.5c.072.1-.114.352-.393.532zm-3.176-2.693a1.772 1.772 0 0 1-1.1-.838l-.453-.759.92.6c1.227.794 1.416 1.093.63 1zm4.333 6.692c-.343-.043-.624-.186-.6-.309.067-.308.846-.229 1.063.106.109.168-.077.249-.467.2zm1.507 2.142c-.147.686-1.267.343-1.872-.576-.408-.613-.383-.64.574-.632 1.076.006 1.476.377 1.3 1.208zm-5.01-5.041a2.488 2.488 0 0 1-1.361-.627c-.2-.309.106-.359 1.061-.172.727.144 1.351.43 1.36.629s-.476.276-1.061.169zm-1.373-1.872a3.962 3.962 0 0 1-1.985-1.258c-.54-.8-.54-.8.389-.655a3.678 3.678 0 0 1 2.581 1.674c.449.675.42.681-.985.24zm-1.937-2.381a2.222 2.222 0 0 1-1.664-.729c-.4-.616-.378-.644.538-.638a2.388 2.388 0 0 1 2.105 1.111c.169.218-.19.312-.979.256zm-2.143-2.367c-1.262-.414-2.231-1.1-1.879-1.326a3.993 3.993 0 0 1 2.665.857c.743.761.517.9-.787.469zm9.908 13.688c-.307.2-1.939-.4-1.877-.69.055-.269 1.784 0 1.983.3a.269.269 0 0 1-.106.388zm-1.748-1.291c-1.084.108-1.084.108-1.219-.522-.067-.314.062-.562.294-.567.249-.005.228-.148-.054-.363-.255-.192-.334-.438-.174-.541s.4.116.547.538a1.949 1.949 0 0 0 .791.978c.763.352.749.388-.185.477zm-9.957-14.58c-1.526-.271-1.893-.837-.657-1.015a1.232 1.232 0 0 1 1.345.541l.435.672-1.123-.2zm11.493 18c-.28.181-2.314-.908-2.251-1.206.027-.126.623-.206 1.317-.177 1.019.045 1.253.171 1.2.655a1.217 1.217 0 0 1-.264.727zm-13.183-19.537c-.823-.163-2.555-.483-3.9-.717-3.562-.625-3.138-1.286.533-.833a13.589 13.589 0 0 0 3 .217 27.486 27.486 0 0 0-3.734-.859c-5.362-1.021-5.328-1.846.05-1.212a5.3 5.3 0 0 1 3.365 1.423 15.4 15.4 0 0 1 1.776 1.731c.336.467.186.5-1.091.249zm6.9 9.892c-.538.023-.351.268.509.665.358.165.643.49.6.683-.121.563-1.062-.067-1.63-1.09-.534-.967-.442-1.408.2-.963.621.432.737.689.32.7zm-1.667-2.3a8.186 8.186 0 0 1-1.81-.616c-.933-.388-1.571-.771-1.43-.862.369-.239 2.168.3 2.72.821.275.26.534.494.574.523s.023.085-.053.134zm-.134 1.05a1.975 1.975 0 0 1-1.139-.226 4.222 4.222 0 0 0-.648-.633c-.274-.222.179-.216.989.015 1.792.508 2.11.846.8.844zm6.175 9.171a1.008 1.008 0 0 1-.724-.473c-.263-.436-.215-.458.449-.212.822.3.967.667.275.685zm-7.9-12.2c-.337.218-3.989-.969-3.923-1.275.12-.56 3.241.246 4.125 1.064.029.028-.052.114-.2.211zm9.434 15.921a1.131 1.131 0 0 1-.714-.551c-.3-.465-.231-.571.41-.623.6-.05.76.071.714.552-.032.337-.215.617-.41.623zm-35.287-54.289c-.048.7-.351.747-4.579.72-2.494-.015-6.522.143-8.968.353-3.915.338-5.261.257-4.46-.261.338-.219 8.251-.874 12.97-1.075a16.972 16.972 0 0 0 3.839-.39c.058-.273-8.078.1-12.884.595a16.059 16.059 0 0 1-3.556.155c-.238-.368.932-2.12 1.495-2.234a5.074 5.074 0 0 1 1.871.374 3.292 3.292 0 0 0 1.625.3c.588-.381 12.313.159 12.6.58a2.5 2.5 0 0 1 .044.885zm18.72 28.82c-1.353.061-5.51-.715-5.74-1.071-.308-.475.936-.456 3.895.062 1.792.315 2.972.961 1.845 1.009zm4.871 7.037a4.889 4.889 0 0 1-1.329-.411c-1.081-.43-.918-.6.466-.493.5.041 1.151.718.863.9zm-.433.741c-1.842-.085-2.353-.36-3.061-1.656l-.676-1.232 1.447.4c.778.21 1.162.353.834.3-.745-.106-1.468.251-1.235.611a7.574 7.574 0 0 0 1.925.858c2.161.747 2.2.785.766.72zm10.838 16.189a1.219 1.219 0 0 1-.814-.613c-.368-.6-.352-.606.455-.175.906.485 1.036.766.359.788zm-13.518-19.284a4.806 4.806 0 0 1-1.778-.6c-.1-.151.55-.135 1.415.039a4.781 4.781 0 0 1 1.777.6c.1.153-.547.134-1.414-.037zm-4.836-6.427c-2.353-.2-6.349-1.031-6.012-1.25a4.612 4.612 0 0 1 1.7.088 4.816 4.816 0 0 0 1.679.106 14.288 14.288 0 0 1 4.287 1.038c.06.093-.689.1-1.658.018zm19.131 28.693a2.745 2.745 0 0 1-1.216-.068c-.408-.134-.55-.085-.4.142.127.2.053.354-.167.359-.8.016-.675-.49.234-.929.514-.248.762-.507.568-.6a.986.986 0 0 0-.8.142c-.364.236-.438.182-.344-.256.226-1.057.774-1.175 1.282-.273.264.465.617.841.791.836.631-.012.676.493.057.643zm-34.916-53.2c-.227.842-.352.87-4.415.978-6.561.173-13.729.591-13.782.8a8.484 8.484 0 0 0 2.75.073c4.648-.244 13.712-.557 14.574-.5.772.05.783.074.541 1.263l-.248 1.213h-2.739c-3.89.006-8.646.394-8.456.687a3.723 3.723 0 0 0 1.838.042c.912-.113 3.441-.235 5.567-.267l3.9-.06-.071 1.06a71.132 71.132 0 0 1-.2 2.3l-.133 1.238-4.132.3c-7.624.56-14.53 1.262-14.578 1.481a7.271 7.271 0 0 0 2.323-.033c6.862-.632 14.864-1.247 15.594-1.2.833.058.833.058.634.98s-.2.921-2.528 1c-1.283.045-5.641.4-9.675.8l-7.34.72.271-2.341c.152-1.289.3-2.521.337-2.742.077-.471.806-.527 6.351-.491a24.255 24.255 0 0 0 4.584-.192 32.171 32.171 0 0 0-5.342-.215l-5.382.007.27-2.1a29.877 29.877 0 0 1 .77-3.816l.5-1.713 3.628-.288c7.294-.577 14.29-.657 14.622-.167a1.919 1.919 0 0 1-.027 1.17zm35.443 55.3c-.086.181-.571.073-1.115-.249-.965-.567-.965-.567-.2-1.066a2.277 2.277 0 0 1 1.041-.435c.325.075.506 1.256.27 1.75zm-21.259-32.159c-1.245-.084-2.12-.505-2.019-.972.081-.363 2.741.243 3.032.692.164.253-.139.339-1.013.28zm15.891 28.9a36.651 36.651 0 0 1-.826 4.706c-.1.064-3.01-2.481-6.458-5.65s-7.651-6.849-9.325-8.166c-5.433-4.27-6.131-4.984-6.416-6.533-.46-2.523-.44-7.983.028-7.727a21.836 21.836 0 0 1 2.386 2.508c1.888 2.194 3.547 3.823 3.147 3.087-.115-.21-1.5-1.814-3.052-3.546l-2.845-3.164-.022-1.356c-.014-.746.129-1.311.317-1.258a41.314 41.314 0 0 1 3.641 4.119 48.562 48.562 0 0 0 3.913 4.419c.431.277.354.088-.251-.633-.479-.569-2.1-2.531-3.642-4.4s-3.077-3.7-3.449-4.1-.549-.707-.4-.674c.581.128 6.5 6.281 7.015 7.3a63.853 63.853 0 0 0 4.147 5.459c2 2.441 3.289 3.887 2.887 3.236s-2.082-2.862-3.726-4.9-2.986-3.791-2.969-3.88.644.438 1.4 1.18 3.346 3.039 5.778 5.119a45.27 45.27 0 0 1 8.564 9.115c.747 1.073.758 1.457.156 5.739zm-17.783-30.6a2.012 2.012 0 0 1-1.067-.425c-.1-.156.313-.189.943-.075 1.337.241 1.456.715.125.5zm-1.287-1.316c-.539-.166-.972-.412-.945-.535.091-.392 1.362-.092 1.659.392.223.359.073.389-.714.144zm8.536 12.512a4.147 4.147 0 0 1-1.053-1.107l-.441-.708.678.555a6.285 6.285 0 0 1 1.054 1.106c.375.551.375.551-.239.154zm15.483 23.545a1.9 1.9 0 0 1-.807-.172c-.618-.218-.61-.238.064-.178.715.06.989.191.743.35zm.251 1.031a.622.622 0 0 1-.476-.088c-.2-.1-.223-.253-.056-.362a.333.333 0 0 1 .476.09c.108.167.132.311.056.36zm-25.535-38.49c-.218.006-.6-.328-.866-.754-.422-.679-.409-.719.128-.361.848.563 1.2 1.1.738 1.115zm25.509 41.247a5.385 5.385 0 0 1-.225 1.735c-.462-.1-2.515-1.907-2.313-2.038a5.525 5.525 0 0 1 1.127-.345c1.045-.231.944-.479-.378-.935-1.724-.593-1.583-1.18.219-.907.572.088.81.2.519.25-.33.055-.25.107.206.133.928.053.946.1.845 2.107zm-25.941-38.964l-1.271-.306 1.331.031c.727.018 1.3.157 1.272.308s-.618.142-1.331-.031zm.981 1.451c-.924-.2-1.68-.491-1.649-.64.093-.43 2.737.054 3.064.558.2.315-.216.338-1.415.082zm22.045 34.6c-.406.16-.444-.039-.19-1 .229-.87.355-1.038.455-.613a.743.743 0 0 0 .615.578c.549-.005-.058.708-.88 1.033zm-24.21-38.683a1.319 1.319 0 0 1-.82-.343c-.1-.149.117-.251.457-.217a1.327 1.327 0 0 1 .817.344c.1.149-.117.251-.455.215zm.907 1.4a1.324 1.324 0 0 1-.821-.344c-.1-.149.118-.25.457-.217a1.329 1.329 0 0 1 .818.345c.1.149-.117.251-.455.215zm5.4 8.028a.335.335 0 0 1-.472-.112c-.109-.168-.022-.3.2-.308a.622.622 0 0 1 .471.114c.049.075-.031.2-.2.306zm-2-2.471a3.009 3.009 0 0 1-1.112-.4c-.72-.408-.72-.408.207-.264.971.151 1.653.65.906.666zm-7.679-11.127a2.511 2.511 0 0 0-.572 1.205l-.234.986-1.243-1.242a17.383 17.383 0 0 1-1.569-1.746c-.381-.589-.236-4.007.164-3.921a22.007 22.007 0 0 1 3.238 3.745c.314.432.407.849.216.973zm3.04 6.109c-.594.125-.911-.191-.673-.673.09-.183.3-.211.511-.068.654.449.692.629.162.741zm25.133 38.82c-.448.29-1.37-.206-1.273-.685.029-.144.409-.146.8 0 .978.36.978.36.474.687zm-29.113-40.746c-.186 1.462-.489 1.471-1.414.043-.381-.588-.783-1-.9-.927s.289.826.916 1.69c.94 1.3 1.112 1.782 1.038 2.924-.078 1.2-.15 1.316-.6.946a6.084 6.084 0 0 1-2.238-5.187 28.517 28.517 0 0 1 .1-3.183c.122-.783.175-.768 1.335.347 1.752 1.687 1.932 2.026 1.763 3.348zm-8.282-4.67c-1.654.1-5.944.512-9.5.908s-6.579.7-6.692.677-.116-.453.008-1l.217-.954 5.3-.582c5.342-.585 12.466-1.147 13.5-1.063.446.037.513.2.366.936-.176.88-.216.892-3.2 1.076zm3.308 9.28c.207 2.291.341 4.292.306 4.49s-1.344.408-2.936.47c-1.572.061-6.2.428-10.24.813-7.971.761-7.609.847-7.321-1.758l.136-1.24 2.3-.076a7.153 7.153 0 0 0 2.352-.294c.068-.261.068-.261-2.527-.1-1.721.106-2.2.009-2.144-.428.057-.455.7-.671 3.34-1.129a16.933 16.933 0 0 0 3.494-.831 10.439 10.439 0 0 0-3.205.386c-2.195.418-3.468.5-3.532.221a40.544 40.544 0 0 1 .125-4.133l.225-3.7 7.142-.75c3.944-.415 8.3-.806 9.724-.873l2.583-.123-.094 2.464a65.76 65.76 0 0 0 .277 6.594zm-16.2-29.379c-1.442.8-1.6 1.02-2.395 3.173a81.878 81.878 0 0 0-2.764 12.622c-.161 1.2-.489 5.025-.731 8.519a45.225 45.225 0 0 1-.708 6.516c-.159.1-.147.231.027.321a18.99 18.99 0 0 1-.034 4.671l-.33 4.522-1.463-1.216a13.577 13.577 0 0 1-1.876-1.827 1.315 1.315 0 0 0-.805-.6c-.529.008-.45.1 1.97 2.309 2.115 1.929 2.138 1.963 1.988 2.885l-.151.932-.646-.475c-.355-.262-1.59-1.356-2.747-2.433a8.442 8.442 0 0 0-2.141-1.713 19.536 19.536 0 0 0 2.733 2.78c2.34 2.141 2.762 2.642 2.7 3.219a1.412 1.412 0 0 1-.283.819 12.884 12.884 0 0 1-2.762-2.086 22.671 22.671 0 0 0-2.979-2.342c-.6-.169-.457-.023 2.439 2.434 2.948 2.5 3.481 3.162 3.224 3.995-.232.756-.342.695-2.591-1.465-1.013-.972-1.8-1.6-1.749-1.371a12 12 0 0 0 2.064 2.16c2.318 2.075 2.3 2.051 1.625 2.183-.429.086-.447.213-.075.529a1.168 1.168 0 0 1 .264 1.239c-.219.8-.273.773-2.033-.91-1.687-1.608-3.058-2.633-2.65-1.978a28.82 28.82 0 0 0 2.094 2.02c2.355 2.13 2.308 2.053 2.137 3.542l-.137 1.2-1.834-1.753c-2.254-2.155-2.556-2.41-2.594-2.174a13.228 13.228 0 0 0 2.023 2.206c1.628 1.568 2.12 2.215 2.355 3.084a4.507 4.507 0 0 0 1.816 2.419c2.336 2.025 6.439 6.109 6.385 6.355-.077.368-.981-.238-1.926-1.295-1.8-2.012-9.363-9.08-9.819-9.177-.3-.064-.279.062.059.36 1.846 1.624 7.081 6.66 10.122 9.735 1.989 2.01 3.874 3.807 4.221 4.022.555.34.56.312.054-.234-2.189-2.357-2.391-2.62-1.945-2.535a48.139 48.139 0 0 1 5.153 4.152c2.561 2.236 4.84 4.2 5.069 4.366.271.2.235.424-.1.641-.471.3-.433.342.408.413.883.074 6.035 3.948 6.047 4.545a107.484 107.484 0 0 0 7.227 9.208c.145.025-.431-.855-1.274-1.938s-2.293-3-3.222-4.27l-1.682-2.289 2.54 1.93a11.663 11.663 0 0 1 2.465 2.179 9.342 9.342 0 0 0 1.507 2.2 62.498 62.498 0 0 1 2.992 4.1c.805 1.227 1.591 2.139 1.834 2.129.295-.012.08-.448-.7-1.415-.616-.766-1.973-2.557-3-3.96-2.132-2.91-1.905-2.975 1.344-.392 1.741 1.382 2.32 2.094 4.726 5.781a33.881 33.881 0 0 0 3.355 4.6c.362.232-.572-1.3-2.257-3.7-2.07-2.95-2.71-4.037-2.293-3.877a18.148 18.148 0 0 1 2.874 3.7 56.87 56.87 0 0 0 3.529 4.867c.952 1.07.762.718-.841-1.543-1.2-1.688-1.968-3-1.823-3.091.311-.2 1.417 1.109 5.3 6.265a32.208 32.208 0 0 0 3.083 3.764c.159.028-.4-.85-1.241-1.937-3.782-4.9-5.865-7.917-5.414-7.818.951.2 3.231 2.438 5.781 5.673a22.015 22.015 0 0 0 2.838 3.249 5.866 5.866 0 0 0-1.243-1.858c-3.036-3.715-3-3.879.331-1.723a18.627 18.627 0 0 0 3.894 2.087c.79.1.8.193.32 2.27-.867 3.724-1.97 3.765-7.377.273-5.067-3.274-4.934-3.17-4.268-3.348.471-.127.391-.192-.35-.292-1.077-.145-2.8-1.332-6.328-4.369-1.389-1.195-3.926-3.18-5.7-4.457-3.3-2.381-4.43-3.646-11.628-13.051-.873-1.144-1.607-1.969-1.634-1.843-.046.208 2.545 3.717 7.262 9.84l1.125 1.457-1.243-.983c-1.181-.934-5.994-6.33-11.009-12.339-1.248-1.5-2.135-2.434-1.982-2.094s2.209 2.921 4.58 5.754 4.288 5.2 4.272 5.281c-.063.3-23.268-17.434-24.483-18.714-.969-1.018-2.6-5.505-3.061-8.388A74.766 74.766 0 0 1 235 388.3c.045-1.119.723-5.236 1.5-9.116a119.786 119.786 0 0 0 1.773-12.113 60.038 60.038 0 0 1 1.669-10.218 1336.9 1336.9 0 0 0 2.571-10.357c1.139-4.683 2.782-8.791 3.46-8.646a38.4 38.4 0 0 1 4.937 3.8c.229.325-.034.589-1.261 1.273zm56.092 85.594c-.5.326-25.827 1.568-25.761 1.262.115-.532 24.206-2.6 24.976-2.146.736.437 1.005.74.785.883zm-6.974 2.48c-8.018.382-15.04.583-15.136.433-.109-.169 16.161-1.917 19.428-2.087 2.8-.146 2.978-.108 2.705.588-.264.674-.947.777-7 1.065zm3.51-4.58c-.946.073-1.183.23-.691.46a22.189 22.189 0 0 1-4.656.611c-2.769.235-7.982.739-11.55 1.121-5.834.622-6.6.622-7.451 0-.946-.7-1.03-1.278-.257-1.779.151-.1.183.036.069.292-.232.525 1.451.521 16.35-.028a67.716 67.716 0 0 0 6.985-.441c.045-.209-3.588-.14-15.3.3-4.229.158-7.662.2-7.638.107.048-.188 9.571-.988 14.77-1.24 6.279-.3 9.565-.261 9.819.131.214.33.12.431-.447.474zm-2.362-1.315c-.816.024-2.2.036-3.082.026-2.52-.025-15.978.488-16.673.637-.453.1-.508.189-.2.337.47.221-2.679.61-4.027.495-1.433-.123-.546-.357 1.528-.4a5.026 5.026 0 0 0 2.047-.275 6.731 6.731 0 0 0-2.5-.113c-1.389.065-2.445-.007-2.326-.157.694-.866 22.317-2.039 25.407-1.378 1.483.317 1.384.787-.176.832zm-1.423-1.523c-1.72-.264-15.427-.015-15.982.291a30.915 30.915 0 0 1-4.847.856c-3.012.378-4.416.4-4.787.061-.308-.278-.4-.566-.215-.7.165-.117-.06-.247-.475-.278-1.773-.122-.054-.387 6.788-1.051 6.039-.585 9.256-.8 17.1-1.132a3.587 3.587 0 0 1 2.146.83c1.294 1.028 1.356 1.286.269 1.12zm6.119 9.146c-.39.614-1.32.754-6.78 1.032-3.462.177-7.5.28-8.911.228a7.856 7.856 0 0 0-2.633.135 8.449 8.449 0 0 0 2.79.26 26.326 26.326 0 0 1 2.895.112 16.593 16.593 0 0 1-2.459.44 6.725 6.725 0 0 1-3.226-.078c-.477-.287-.617-.493-.422-.619.169-.109.144-.264-.054-.363s-.3-.2-.239-.243 3.56-.4 7.754-.789 8.5-.843 9.546-1a4.942 4.942 0 0 1 2.05-.057c.082.127-.053.535-.31.936zm-8.663-11.6c-.272.018-1.582.013-2.909-.013s-6.72.086-11.942.243-9.438.229-9.331.16c.38-.246 12.226-1.491 17.483-1.838 3.772-.25 5.419-.2 5.937.184 1.033.761 1.314 1.227.761 1.264zm-2.26 11.268c-8.287.823-9.538.857-10.359.29-.505-.349-.794-.655-.628-.665s2.756-.1 5.755-.191 7.485-.274 9.972-.4a42.017 42.017 0 0 1 4.6-.1c.045.07-4.155.548-9.343 1.064zm8.8 3.522c-.4-.067-3.83.006-7.622.165-9.812.406-9.375-.309.867-1.424l8.241-.9-.377 1.137c-.337 1.016-.454 1.124-1.11 1.017zm-12.04-16.818c-1.817.157-6.1.428-9.559.606-6.73.346-7.634.444-6.99.753.369.176-.969.459-4.4.927a2.336 2.336 0 0 1-1.372-.153c-.277-.206.026-.328 1.071-.434a3.4 3.4 0 0 0 1.748-.55c.34-.465 20.079-2.735 21.371-2.46a2.205 2.205 0 0 1 1.147.608c.2.307-.612.5-3.019.7zm-24.41-38.624q-.223.483-5.535.841c-2.931.2-7.518.658-10.239 1.028-2.7.366-4.952.639-4.977.6a8.359 8.359 0 0 1 .014-1.242l.057-1.168 6.226-.476c3.408-.26 7.669-.555 9.413-.651a12.585 12.585 0 0 0 3.24-.4c.058-.238-8.081.225-14.717.834-2.1.192-3.928.194-4.052 0s-.139-.405-.029-.477c.348-.225 11.053-1.278 16.1-1.581l4.7-.286.01 1.244a5.605 5.605 0 0 1-.212 1.726zm25.553 36.554c-.093.06-2.406.21-5.147.335-4.979.225-5.612.306-4.939.632.209.1-.525.287-1.6.4-1.093.116-4.413.577-7.383 1.022-5.035.753-6.387.735-6.58-.086-.041-.17 3.335-.539 7.487-.815a68.86 68.86 0 0 0 7.594-.725 50.114 50.114 0 0 0-6.658.237 60.367 60.367 0 0 1-6.653.277c.159-.737 20.992-2.667 22.843-2.116.842.249 1.333.646 1.038.837zm-7.465-1.344c-2.971.257-7.585.64-10.216.849-4.912.389-5.41.467-4.806.754.369.175-3.928 1.035-4.562.913-.247-.047-.381-.194-.337-.365a5.034 5.034 0 0 1 2.221-.4 5.4 5.4 0 0 0 2.2-.373c.03-.142-.616-.184-1.471-.1-1.826.19-2.192-.029-.52-.313 11.353-1.916 23.171-2.725 22.935-1.57-.015.075-2.473.349-5.445.605zm-2.866-1.482c-3.564.322-7.217.616-8.16.654a3.427 3.427 0 0 0-1.873.419 16.981 16.981 0 0 1-4.355.913l-4.184.564-2.759-2.326c-1.518-1.281-3.113-2.614-3.547-2.967s-.776-.723-.754-.824c.08-.369 2.288-.21 2.542.183a2.708 2.708 0 0 0 1.806.334c1.687-.093 2.2-.273 1.6-.555-.627-.292 1.959-.631 10.937-1.432a73.266 73.266 0 0 0 8.652-1.039c.1-.539-1.661-.433-11.695.7-5.553.626-10.088 1.059-10.065.961.075-.312 8.715-1.82 14.6-2.551l5.772-.714 1.247.979c1.55 1.221 1.8 1.549 1.1 1.474-.683-.073-15.643 1.268-15.884 1.424-.1.065-.028.178.182.28.195.094-1.361.475-3.461.85a29.482 29.482 0 0 0-4.232.952c-.753.488.67.663 3.671.452a9.182 9.182 0 0 1 2.768.008 6.5 6.5 0 0 1-2.1.529c-2.2.342-2.658.5-2.437.841.182.28 6.879.2 6.938-.083a4.8 4.8 0 0 0-2.1-.172 8.2 8.2 0 0 1-2.116-.079c.117-.553 20.1-3.124 21.672-2.789a1.748 1.748 0 0 1 1.01.638c.252.389-1.069.649-6.432 1.264-3.7.425-7.826.8-9.132.836-2.422.064-3.037.183-2.427.472.37.175-1.482.549-4.12.832-1.932.207-2.287.321-1.778.562a71.724 71.724 0 0 0 8.81-.5c.118-.076.056-.2-.153-.3s-.27-.223-.152-.3c.33-.214 15.548-1.634 16.334-1.523 1.714.24.389.477-5.728 1.033zm21.1 23.109c-.457.484-1.6.6-5.474.565a31.785 31.785 0 0 0-4.929.15c-.016.112.689.205 1.608.212a7 7 0 0 1 1.709.126 12.972 12.972 0 0 1-3.8.392c-.674-.256-.707-.536-.077-.67.382-.081.417-.181.106-.322-.248-.114 2.131-.483 5.326-.826a44.212 44.212 0 0 1 5.94-.429c.087.1-.108.479-.413.8zm-62.44-94.176c-.621.266-.605.2.091-.437.5-.456.788-.579.73-.313a1.457 1.457 0 0 1-.822.751zm26.067 39.221c-.153.484-1.494.73-7.016 1.285-3.767.377-8.42.915-10.385 1.2l-3.559.516.1-.979.1-.978 4.759-.631c5.452-.718 15.869-1.5 16.06-1.208a1.325 1.325 0 0 1-.06.794zm10.92 28.989c-8.1.808-16.183 1.374-16.138 1.126.031-.162 7.551-1.562 11.719-2.182 3.517-.523 10.069-.939 10.819-.69 2.023.673.688 1.037-6.4 1.746zm20.128 28.419a27.858 27.858 0 0 1-3.749-.434c-.39-.185 6.886-1.071 7.912-.962.489.051.47.206-.1.853-.635.718-1.013.768-4.06.543zm-31.337-54.2l-.246 1.709-3.915.607c-2.154.335-6.8 1.126-10.325 1.758s-6.477 1.139-6.559 1.129-.112-.5-.059-1.135l.093-1.113.726.663c.689.627.714.622.474-.068-.246-.711-.092-.753 5.72-1.6 3.269-.475 7.406-.977 9.134-1.106a12.28 12.28 0 0 0 3.213-.471c.078-.372-10.639.813-17.39 1.921l-1.724.283v-1.011a1.817 1.817 0 0 1 .338-1.232c.894-.579 20.329-2.717 20.621-2.266a6.72 6.72 0 0 1-.1 1.932zm-28.246-37.83a12.9 12.9 0 0 1-2.473 1.622 62.185 62.185 0 0 1 5.017-4.594c.154-.1.21.108.126.469-.094.413-1.082 1.336-2.67 2.5zm41.4 58.357c-.156.014-5.8.676-12.554 1.472s-12.255 1.367-12.233 1.265c.188-.874 24.27-3.992 24.778-3.209.163.252.167.458.009.471zM238 345.117c-.288.061-.264-.041.06-.277.27-.2.486-.241.454-.1a.686.686 0 0 1-.515.373zm39.038 59.407c-.151.021-2.138.227-4.45.458s-5.57.681-7.3 1.005c-3.791.71-13.32 1.7-13.512 1.4-.22-.339 2.066-.8 6.332-1.265 2.156-.238 6-.731 8.619-1.1s5.9-.852 7.355-1.068c1.668-.247 2.738-.222 2.928.072.163.252.175.479.024.5zm-39.048-54.761c-1.328 1.14-5.107 3.634-5.04 3.325.046-.2 6.148-5.788 6.661-6.1.728-.442-.678 1.963-1.621 2.774zm36.7 53.381c-.678.42-13.913 2.437-13.845 2.109.053-.249 9.611-1.776 11.732-1.877a3.607 3.607 0 0 0 1.7-.305c.11-.558-7.074.414-15.408 2.083-4.993 1-8.393 1.32-8.278.777.083-.383 3.427-1.153 6.535-1.5 1.609-.182 6.029-.816 9.816-1.407 6.134-.959 7.935-1.06 8.319-.467.059.091-.2.362-.573.591zm-9.5-14.189c-.18.391-1.5.748-4.864 1.32-2.541.432-7.1 1.365-10.139 2.076s-5.679 1.267-5.873 1.238-.271-.578-.177-1.2l.171-1.144 6.956-1.224c14.372-2.532 14.609-2.549 13.926-1.07zm33.103 52.145c-.721-.154-.706-.172.263-.33.576-.094.908-.022.761.164a1.193 1.193 0 0 1-1.024.166zm-63.609-92.327c-1.44 1.15-1.548 1.19-1.306.468.19-.563.873-1.169 2.4-2.127 1.779-1.119 1.994-1.2 1.3-.468a29.415 29.415 0 0 1-2.4 2.127zm34.9 52.671c-3.134.449-9.007 1.554-14.628 2.752a14.534 14.534 0 0 1-3.182.459c-.331-.154 2.462-.9 7.3-1.947 3.173-.687 13.8-2.125 13.737-1.859a21.906 21.906 0 0 1-3.23.594zm-1.386-.725c-10.462 1.452-17.982 2.381-17.947 2.221.066-.313 9.266-2.257 14.783-3.121 4.508-.708 5.615-.759 6.228-.291.423.322.776.586.811.607s-1.722.285-3.874.584zm-.268 1.76a34.026 34.026 0 0 1-4.9.568 20.38 20.38 0 0 1 3.616-.734c4.7-.724 6.307-.913 6.26-.741a45.435 45.435 0 0 1-4.978.907zm29.416 38.84c.3.228.2.314-.486.414a2.2 2.2 0 0 1-1.2-.1c-.178-.123-.853-.58-1.485-1l-1.161-.778 2.356.2c1.6.138 2.233.327 1.974.591a.432.432 0 0 0 0 .676zm-34.486-49.825c-.947.338-3.975 1.225-6.779 1.985s-6.61 1.82-8.517 2.37c-3.649 1.056-4.32.916-3.853-.8.21-.774.429-.872 3.789-1.7 4.455-1.094 12.342-2.707 15.157-3.1 2.672-.372 2.786.314.2 1.236zm-27.291-37.367c-3.378 2.883-4.357 3.581-4.212 3.006.094-.364 1.249-1.447 6.677-6.256.68-.6.743-.6.617.035-.091.466-1.136 1.556-3.082 3.216zm50.363 76.5c-4.113.459-5.266.436-5.152-.1a74.58 74.58 0 0 1 9.507-.474c.03.046-1.948.307-4.355.576zm11.419 11.715c-.448-.1-.439-.154.046-.267.345-.079.6-.025.575.123s-.3.215-.621.144zm-30.923-43.465c-1.61.273-4.138.763-5.56 1.078-7.332 1.622-14.362 2.857-12.128 2.129 3.74-1.22 20.192-4.4 20.477-3.961.089.137-1.179.478-2.79.753zm25.416 38.151a7.942 7.942 0 0 1-2.786 0c-.206-.144-.271-.289-.134-.3 1.132-.094 5.183-.155 5.232-.08a11.4 11.4 0 0 1-2.312.384zm-26.595-39.2a17.519 17.519 0 0 1-3.08.214 25.733 25.733 0 0 1 5.355-1.118c1.531.18.5.589-2.275.9zm12.187 24.651c-5.963.608-7.6.586-7.453-.1.043-.2 13.961-.9 14.088-.7.04.062-2.947.421-6.635.8zm-44.813-69.829c-.321.208-.354.1-.136-.488a5.212 5.212 0 0 1 2.136-1.917l1.85-1.159-1.715 1.646c-.955.917-1.9 1.766-2.135 1.918zm32.605 43.67a3.526 3.526 0 0 0-1.816.571c-.286.391-13.206 3.413-16.7 3.909-4.8.678 5.8-1.968 12.552-3.136a20.153 20.153 0 0 0 3.8-.855 15.694 15.694 0 0 0-3.539.4c-3.474.586-4.569.62-2.531.078.536-.142 2.54-.71 4.415-1.251 2.845-.822 3.584-.906 4.326-.5.5.273.921.52.956.554a7.393 7.393 0 0 1-1.461.23zM232.7 355.184c-1.107.991-1.117.991-.971.092.126-.8.455-1.1 2.712-2.53l2.559-1.621-1.593 1.527c-.883.848-2.094 1.976-2.713 2.532zm2.342.889c-1.532 1.375-3.034 2.746-3.371 3.074-.559.545-.6.535-.473-.131s4.212-4.525 6.133-5.794c1.534-1.014.3.527-2.289 2.851zm63.5 94.22a.909.909 0 0 1-1.033.55c-.589-.065-.589-.171.01-.782a12.951 12.951 0 0 0 1.108-1.293c.374-.529.409-.513.341.157a4.38 4.38 0 0 1-.426 1.368zm-64.333-91.3c-1.544 1.358-3.035 2.711-3.292 2.985-.4.425-.425.327-.177-.64.237-.923.849-1.633 3.177-3.685 1.595-1.406 3.094-2.768 3.352-3.045.38-.4.4-.271.117.7-.281.948-.95 1.725-3.177 3.685zm28.615 35.426c-.36.117-.65.112-.622-.01.055-.245 1.1-.518 1.225-.321.038.059-.24.213-.6.33zm-5.484 2.357a65.328 65.328 0 0 1-6.366 1.72 95.647 95.647 0 0 1 10.153-3.233c4.871-1.282 2.677-.407-3.788 1.513zm-24.14-34.37a23.823 23.823 0 0 1-3.117 2.118c-.112-.024-.028-.443.182-.913.326-.725 1.293-1.687 5.868-5.846l.75-.683-.384 1.58c-.376 1.53-.482 1.652-3.3 3.744zm62.664 90.01c-1.413.026-1.907.178-1.379.424.175.082.028.25-.331.371s-.725.1-.82-.043.024-.267.262-.268a.427.427 0 0 0 .436-.4c0-.238.8-.511 2-.681 1.31-.185 1.856-.134 1.584.147a3.109 3.109 0 0 1-1.754.453zm-3.081 2.479c-1.812.146-1.91.116-1.263-.414a7.265 7.265 0 0 1 2.811-.845c2.088-.27 2.1-.267 1.26.414a5.108 5.108 0 0 1-2.808.845zm-57.265-91.946c-.813.828-6.382 5.465-6.531 5.437a4.357 4.357 0 0 1 .39-1.486c.516-1.433 2.389-3.242 5.524-5.336 1-.667 1.056-.662 1.075.1a2.063 2.063 0 0 1-.458 1.288zm26.282 40.436c-.448-.1-.438-.157.045-.268.344-.08.6-.025.576.124s-.3.213-.621.144zM283.412 436c-.1.217-.469-.121-.931-.855-.588-.931-.624-1.117-.161-.809.817.545 1.281 1.252 1.092 1.664zm8.963 15.812c-6.466.686-13.895.994-14.34.595-.283-.257-.457-.5-.387-.546s3.053-.2 6.655-.336 6.613-.309 6.712-.373.009-.2-.2-.308c-.272-.135-.153-.209.412-.254.944-.078 1.144.124.342.341-.369.1-.186.205.506.29a3.347 3.347 0 0 0 1.29 0c.125-.081.282-.022.391.145s-.524.354-1.38.447zm-56.751-86.586c-.092.18-1.881 1.819-3.991 3.655a28.85 28.85 0 0 0-3.694 3.526 25.676 25.676 0 0 0 3.788-3.048 27.5 27.5 0 0 1 3.773-3.059 5.519 5.519 0 0 1-.062 1.592c-.173 1.355-.274 1.476-2.8 3.342a11.029 11.029 0 0 0-2.485 2.144c.074.114.582-.144 1.107-.562 3.879-3.088 4.107-3.225 3.964-2.382-.11.64-.741 1.256-3.068 3a13.745 13.745 0 0 0-2.93 2.592c0 .246.27.14.711-.281.394-.377 1.723-1.45 2.974-2.4l2.262-1.723-.263 1.4c-.262 1.4-.278 1.411-3.273 3.35a13.25 13.25 0 0 0-3 2.3c.005.2 1.24-.539 2.891-1.733 2.408-1.741 2.9-2 3-1.6.165.673-2.26 2.652-6.267 5.117l-3.323 2.046 1.3-4.808c2.383-8.835 1.927-7.906 5.378-10.9 4.07-3.532 4.044-3.515 4.119-2.6a2.565 2.565 0 0 1-.105 1.042zm14.937 30.833a40.9 40.9 0 0 1-5.23 1.616c-1.139-.215.136-.771 4.895-2.134a48.506 48.506 0 0 1 5.194-1.336 49.474 49.474 0 0 1-4.858 1.854zm42.3 56.441a.433.433 0 0 0-.426.475c0 .334-1.552.7-5.323 1.261-4.6.682-5.455.7-6.256.155a3.4 3.4 0 0 1-.919-.776c.005-.078 2.56-.247 5.656-.375 6.151-.254 7.078-.354 6.386-.686-.37-.178-.305-.231.339-.279a1.606 1.606 0 0 1 .887.08c.049.076-.107.142-.344.144zm-3.144-2.216c-8.955.587-13.075.7-13.8.391-.479-.208-.825-.441-.8-.536a54.142 54.142 0 0 1 6.011-.2 601.23 601.23 0 0 0 8-.074c2.5-.057 2.953.26.585.417zm-32.5-50.686c-.783.042-.662-.164.207-.356.313-.069.541-.027.52.1s-.342.236-.727.257zm32.4 49.833c-.263.018-2.881.063-5.795.1-5.081.068-7.231-.009-5.371-.2.484-.048.912-.191.931-.311a8.922 8.922 0 0 0-2.83-.016 10.411 10.411 0 0 1-3.546-.167c-.621-.343-.6-.381.191-.443.48-.036 3.084-.083 5.811-.1 5.416-.043 6.232-.117 5.474-.508-.273-.14-.305-.213-.073-.169a.981.981 0 0 1 .6.367.644.644 0 0 0 .672.181c.31-.073.326-.19.046-.329-.332-.163-.248-.23.354-.279.943-.078 1.213.129.4.305-.452.1-.479.181-.11.354.284.131-.062.244-.836.272-3.376.126-5.808.351-5.85.539a22.272 22.272 0 0 0 4.524-.071c3.851-.251 5.411-.154 5.824.364.036.043-.147.091-.412.107zm-38.168-48.486c-4.076 1-6.437 1.324-5.552.751.561-.363 10.333-2.309 10.277-2.045-.017.075-2.155.661-4.725 1.294zm38.297 55.455c-3.065.36-4.509.209-2-.208 3.478-.58 4.8-.685 4.536-.358a7.775 7.775 0 0 1-2.533.565zm-31.132-47.042a15.262 15.262 0 0 0-3.1.819.577.577 0 0 1-.88-.224c-.326-.5-.011-.6 3.134-.958a22.059 22.059 0 0 1 3.467-.258 14.645 14.645 0 0 1-2.617.621zm31.179 45.367a14.981 14.981 0 0 1-3.21.531c-2.216.135-3.092.388-1.71.491.419.031.661.146.514.241-.447.289-1.974.114-1.546-.179.194-.132.2-.324.01-.416s.334-.282 1.195-.422c3.988-.652 5.71-.878 5.787-.76.04.061-.428.292-1.04.514zm-5.473-7.625c-4.219.108-14.094-.053-14.055-.231a65.549 65.549 0 0 1 6.77-.807c5.4-.5 6.9-.5 7.591-.028 1.311.9 1.275 1.026-.306 1.067zm-31.769-43.272c-2.793.718-3.734.827-3.969.465-.258-.4.346-.568 3.694-1.042 2.222-.315 3.989-.52 3.971-.465s-1.687.526-3.7 1.042zm29.434 41.2c-.451.041-2.356.1-4.2.143-3.449.072-4.075.162-3.377.487.219.1-.842.3-2.375.444-1.684.161-2.885.089-3.06-.183a1.942 1.942 0 0 0-.957-.653c-.993-.306-.647-.415 2.354-.749 5.965-.665 10.941-.844 11.537-.417.964.687.975.851.077.928zm-5.858-2.667c-1.878.044-4.666.146-6.133.226-3.3.175-6.27.027-6.2-.309.121-.566 12.841-1.2 14.565-.729 1.768.488 1.091.734-2.234.812zM254.486 408.2c-.856.212-1.614.269-1.7.13-.239-.369-.049-.442 1.6-.6 1.945-.188 1.99.009.107.472zm22.491 32.439c-.161 0-2.016.106-4.125.227s-4.607.19-5.555.16-1.8.106-1.894.3c-.21.438-2.363.65-2.617.258-.1-.156.37-.258 1.064-.231s1.265-.053 1.292-.182-.8-.254-1.812-.283c-2.854-.081-2.137-.541 1.039-.666 4.495-.177 12.595-.059 12.753.186.087.134.028.229-.146.235zm-1.081-1.149a18.031 18.031 0 0 1-2.424.06c-1.253-.017-3.375 0-4.7.044s-3.536.005-4.9-.079c-2.526-.153-3.136-.1-2.479.225.2.1.084.223-.267.292-.387.075-.52 0-.355-.208a.312.312 0 0 0-.126-.514c-.759-.358 4.946-.513 9.325-.252a18.077 18.077 0 0 0 4.723-.067c.32-.407-2.776-.73-6.261-.652a66.664 66.664 0 0 1-10.745-.848c-1.156-.364 1.4-.508 5.81-.329 5.59.229 8.824.271 9.056.12.572-.37-2.583-.68-7.041-.688-4.573-.011-9.121-.335-10.11-.723-1.078-.423-.421-.573 1.755-.4 1.31.1 5.048.219 8.29.257l5.906.07 2.2 1.59c2.293 1.655 2.6 1.933 2.334 2.106zm1.222 3.976a1.573 1.573 0 0 1-.849-.086c-.049-.076.251-.164.668-.194a1.556 1.556 0 0 1 .851.085c.049.076-.251.164-.67.195zm-47.786-58.929a19.86 19.86 0 0 0-3.777 2.6 18.422 18.422 0 0 0 3.827-2.159l3.681-2.383-.191 1.116c-.182 1.066-.357 1.228-3.822 3.547l-3.632 2.432 3.493-2.123a18.053 18.053 0 0 1 3.607-1.918 3.075 3.075 0 0 1 .065.991c-.044.73-.336.956-4.152 3.224-2.265 1.346-3.661 2.293-3.117 2.117a30.383 30.383 0 0 0 4.041-2.258c1.69-1.073 3.076-1.811 3.1-1.651.049.287.555 8.192.538 8.391-.012.161-11.187 6.059-11.409 6.021-.094-.015-.1-.346-.02-.707.15-.643 1.2-1.284 9.443-5.786.911-.5 1.615-1 1.546-1.109a39.578 39.578 0 0 0-5.353 2.771 48.589 48.589 0 0 1-5.553 2.9c-.182-.038-.235-.454-.123-.954.194-.845.434-1.017 5.228-3.742 2.758-1.567 5.142-3 5.288-3.184a10.773 10.773 0 0 0-2.655 1.3c-1.6.9-4.029 2.217-5.391 2.933l-2.473 1.3.551-3.753a74.353 74.353 0 0 1 1.575-7.477l1.024-3.723 4.8-3.109 4.8-3.108-.511 2.555-.51 2.556-3.922 2.381zm46.116 58.956c-.268.01-1.86.043-3.55.074a9.2 9.2 0 0 0-3.213.376 3.651 3.651 0 0 1-2.513.411c-.048-.075.254-.252.648-.381.71-.228.7-.243-.342-.372l-1.079-.136 1.291-.153a79.319 79.319 0 0 1 9.17.054c.04.062-.139.118-.412.127zm-6.693-8.158c-2.414.076-9.678-.1-9.766-.235-.109-.168-.109-.168 2.99-.289 1.4-.056 3.5-.046 4.725.022a5.9 5.9 0 0 0 2.247-.105c.1-.477-7-.511-11.311-.056-2.455.26-4.058.053-4.465-.575-.335-.518 2-.711 5.543-.458a4.348 4.348 0 0 0 2.334-.2c.2-.425 6.238-.411 6.245.017 0 .167.418.368.9.432s.935.345.989.609a.558.558 0 0 0 .475.489.594.594 0 0 1 .476.149c.055.085-.563.175-1.38.2zm-24.4-37.009c-.646.418-1.284.2-1.025-.353.228-.487 1.121-.662 1.375-.27.095.147-.071.442-.349.623zm21.455 34.307c-.6-.01-2.9.057-5.149.149s-4.9.116-5.926.052c-2.109-.131-2.674-.075-2.081.206.212.1.248.276.081.384a.311.311 0 0 1-.464-.2 2.472 2.472 0 0 0-1.127-.821 2.382 2.382 0 0 1-1.056-.707 2.323 2.323 0 0 0-.915-.737l-.831-.457 1.187.206c.758.132 1.121.339 1.008.578-.1.21.286.288.889.178a21.128 21.128 0 0 1 3.956.1c3.826.385 9.53.509 9.594.209a9.91 9.91 0 0 0-3.045-.253c-1.717-.013-3.679-.1-4.4-.208-1.208-.17-1.125-.2 1.05-.4 3-.275 6.19-.057 6.545.447a3.153 3.153 0 0 0 .979.756c.979.489.952.536-.293.513zm-2.138-2.318a24.951 24.951 0 0 1-2.831.105c-1.479.01-3.889.13-5.348.269-2.394.229-8.139-.585-6.561-.928.488-.105.547-.2.225-.359-.268-.132.05-.261.836-.337 1.869-.183 10.035-.331 10.13-.184.122.188-.831.252-5.975.4a25.748 25.748 0 0 0-4.529.339 47.552 47.552 0 0 0 6.285-.018 63.273 63.273 0 0 1 6.942-.023c.651.214 1.066.579.827.734zm-6.5-3.08c-1.469 0-4.351.155-6.378.335s-4.26.3-4.94.258c-1.115-.067-2.671-.806-2.581-1.227a18.842 18.842 0 0 1 3.709-.161c3.75.024 4.239-.027 3.545-.365-.244-.119-.231-.211.031-.219.234-.006.457.145.463.317s1.887.335 4.195.344a15.547 15.547 0 0 1 4.408.363c.124.192-.984.353-2.451.356zm-2-1.8a6.774 6.774 0 0 0-2.547.179c-.029.14.838.252 1.95.248a8.569 8.569 0 0 1 2.093.134c.049.075-.424.142-1.021.143-4.324.008-4.763-.036-3.611-.36 1.168-.332-1.041-.385-4.52-.11-3.591.282-6.454.083-6.348-.443.08-.4 2.673-.633 6.216-.557 2.135.042 2.974-.083 3.185-.484.222-.422-.411-.482-2.9-.27a47.771 47.771 0 0 1-5.9.087l-2.721-.186-5.595-4.284c-3.063-2.346-5.574-4.335-5.551-4.4a96.3 96.3 0 0 1 10.431-.7c-.033.159-.908.315-6.375 1.139-1.809.271-2.4.47-2.216.747.137.211 1.027.176 2.014-.081 3.335-.863 11.405-1.749 12.169-1.333.4.217.709.487.679.594a10.046 10.046 0 0 1-2.657.309 49.186 49.186 0 0 0-5.671.692c-1.7.318-3.541.616-4.135.671s-.943.2-.782.327a55.794 55.794 0 0 0 7.23-.338c8.074-.66 10.023-.543 3.392.206-2.517.283-5.476.64-6.616.8s-2.212.3-2.4.318-.156.122.056.222c.376.18 10.82-.421 13.338-.767 1.35-.186 2.554.441 2.217 1.153-.121.254.063.377.523.348.382-.021.623.024.521.1a31.376 31.376 0 0 1-3.881.328 12.735 12.735 0 0 0-3.835.516 3.959 3.959 0 0 1-1.927.526c-4.082.442-4.224 1.083-.181.823a5.708 5.708 0 0 0 2.674-.563c.119-.247.2-.235.2.03s.6.373 1.494.28c2.045-.212 2.234-.458.343-.449-2.38.011-.784-.292 2.3-.435 1.505-.072 2.7.029 2.71.225s.548.3 1.181.229c.707-.075 1.212.072 1.271.369a.8.8 0 0 0 .7.562c1.392.164.858.593-.865.691a91.773 91.773 0 0 1-9.744.153c-.427-.2 4.268-.757 7.261-.86 2.254-.078 3.322-.359 1.834-.482a19.229 19.229 0 0 0-2.643.124c-1 .107-1.784.085-1.76-.052s.418-.272.873-.307.852-.174.872-.308-.479-.189-1.111-.123c-1.3.138-1.6.277-1.1.506.548.254.39.291-3.8.88a25.16 25.16 0 0 0-3.976.729c-.084.351 6.153.486 10.557.229 4.365-.253 5.623-.213 5.879.183.08.124-.686.228-1.715.235-1.9.011-2.616.189-1.986.494.21.1.138.213-.178.277-1.27.258-.133.407 2.39.316 2.4-.088 4.34.236 4.237.715a11.965 11.965 0 0 1-2.521.061zm3.452 2.512c-.485.009-1.979.041-3.311.07-2.623.058-3.362-.1-1.379-.288a28.337 28.337 0 0 1 5.484.063c.049.075-.322.148-.794.156zm-4.564-3.679a10.832 10.832 0 0 1-1.531-.062c-.824-.1-.821-.1.1-.151 1.766-.1 1.927-.093 2.01.036.052.08-.2.154-.579.176zm6.142 14.49a2.626 2.626 0 0 1-1.557-.257c-.423-.326-.393-.36.277-.309 2.426.189 2.9.4 1.279.565zm-27.116-40.5c.1.649-.055 1-.529 1.176-.369.14-2.742 1.382-5.269 2.755a45.277 45.277 0 0 1-5.061 2.521c-.35.017-.481-.184-.534-.825-.069-.8.046-.908 2.06-1.97 5.955-3.138 9.091-4.735 9.141-4.658a8.085 8.085 0 0 1 .191 1zm.369 2.563c-.037.709-.233.8-4.973 2.384-2.711.9-4.921 1.583-4.9 1.506a40.174 40.174 0 0 1 3.553-2c6.457-3.405 6.4-3.388 6.322-1.894zm7.717 12.286a.64.64 0 0 1-.6-.008.656.656 0 0 0-.628.009c-.147.095-.087.275.125.378s-.807.288-2.281.4a9.541 9.541 0 0 1-2.647.025 7.245 7.245 0 0 1 2.193-.327 5.923 5.923 0 0 0 2.2-.373c.06-.279-4.725.251-8.971.994-2.926.512-4.063.532-3.964.072a139.048 139.048 0 0 1 14.16-1.939c.563.231.738.556.415.765zm-8.631-8.913a6.376 6.376 0 0 1-2.44.8 14.214 14.214 0 0 0-3.53.9 18.663 18.663 0 0 1-2.927.882c.017-.075 2.26-1.2 4.961-2.5 4.823-2.306 4.939-2.344 5.365-1.686s.4.687-1.428 1.6zm4.942 7.666c-1.277.138-4.376.635-6.891 1.108-4.782.9-5.1.924-4.993.448.156-.73 13.608-2.731 14.024-2.088.1.153-.879.395-2.141.532zm3.18 4.755a9.722 9.722 0 0 1-2.314.108 7.5 7.5 0 0 1 2.132-.388 9.723 9.723 0 0 1 2.314-.107 7.538 7.538 0 0 1-2.133.387zm8.626 12.1c-1.306.13-1.563.264-1.006.525.24.112.218.189-.055.2a.443.443 0 0 1-.463-.376c-.008-.222-.309-.292-.7-.161s-.756.116-.849-.027c-.2-.315.748-.5 2.54-.492s2.076.184.535.336zM230 407.527c-2.524 1.81-3.352 2.267-4.258 2.35-1.275.116-2.493-.176-2.4-.577.056-.249 4.211-2.388 8.372-4.309 2.049-.948 2.363-1.016 1.933-.422a26.946 26.946 0 0 1-3.647 2.958zm3.67 3.615c-5.012.664-5.679.689-4.182.168 1.782-.623 7.571-1.79 7.985-1.609 1.261.55.37.889-3.8 1.441zm2.883-1.927a23.229 23.229 0 0 1-4.886.615 5.534 5.534 0 0 1 1.581-.691c1.665-.558 1.969-.954.977-1.269-.536-.173-.5-.271.252-.76.849-.55.887-.534 1.7.725.6.924.7 1.312.374 1.379zm-3.257-.465c-.471.2-.734.195-.578 0 .282-.361 1.226-.685 1.366-.468.039.061-.32.276-.788.47zm-7.828-3.4c-2.867 1.4-3.562 1.547-3.146.665.169-.356 6.3-2.653 6.236-2.338a22.006 22.006 0 0 1-3.09 1.673zm1.349 1.561c-1.387.681-2.771 1.4-3.038 1.569-.311.2-.626.108-.861-.256-.272-.421-.215-.623.208-.753.316-.1 1.882-.622 3.443-1.156a15.022 15.022 0 0 1 2.828-.818 18.07 18.07 0 0 1-2.581 1.413zm13.555 17.684c-.765-.174-.762-.192.057-.277.485-.049.851.033.818.187s-.423.193-.875.09z" transform="translate(-219.056 -335.504)"/><path class="cls-1" d="M304.756 385.843c-3.694-4.084-8.3-8.786-7.025-7.173.931 1.181 8.95 10.058 10.417 11.532 2.089 2.1-.129-.752-3.392-4.36zm-7.191-9.249c-6.664-7.645-8.824-10.012-9.224-10.118-.283-.075-.254.045.08.345.284.254 2.737 3.035 5.463 6.2s5.46 6.3 6.09 6.982c1.122 1.22 1.129 1.225.418.126-.4-.613-1.676-2.211-2.826-3.532zm-7.496-7.266c-4.962-5.645-6.671-7.489-6.721-7.25-.04.2 10.7 12.62 11.278 13.041.776.567-1.375-2.169-4.557-5.791zm-5.369-2.482c-.73-.843-2.942-3.42-4.93-5.748a31.366 31.366 0 0 0-3.5-3.811c.136.531 8.9 10.927 9.811 11.645.9.705.433 0-1.377-2.086zm9.495 44.387a39.577 39.577 0 0 0-3.3-3.983c-.405-.087-.313.045 3.661 5.178 1.9 2.462 3.565 4.5 3.691 4.523.343.075-.36-.919-4.056-5.717zm-.045-12.563c-3.032-3.957-8.592-10.356-9.256-10.655-.438-.2-.41-.092.121.438 1.78 1.781 6.931 7.949 9.022 10.805a14.077 14.077 0 0 0 2.549 3c.132-.085.12-.294-.032-.475s-1.225-1.571-2.4-3.111zm-36.367-31.585c-5.7.467-11.172 1.116-11.219 1.328a59.1 59.1 0 0 0 7.3-.514c7.494-.758 10.265-1.334 3.922-.814zm3.404 4.951c-6.491.4-8.534.592-8.585.792a41.085 41.085 0 0 0 5.914-.192 47.773 47.773 0 0 0 6-.61 14.315 14.315 0 0 0-3.331.01zm-1.257-1.668c-1.7.2-2.7.408-2.228.458 1.239.132 5.208-.315 5.264-.6a10.136 10.136 0 0 0-3.036.138zm-.33 4.742c-2.633.227-6.716.511-9.008.628a24.541 24.541 0 0 0-4.247.405 12.629 12.629 0 0 0 3.158.061c5.417-.223 14.825-1.035 14.871-1.285a25.714 25.714 0 0 0-4.774.191zm19.005 57.858c-1.071-1.373-2.138-2.66-2.356-2.844-.506-.431 3.449 5.037 5.383 7.439l1.471 1.828-1.268-1.959c-.694-1.072-2.157-3.092-3.23-4.463zm-5.221-3.493c-2.787-3.519-4.013-4.853-3.138-3.413.676 1.114 6.847 8.8 7.112 8.864.313.072-.629-1.221-3.975-5.451zm-6.999-5.381a20.693 20.693 0 0 0-2.621-2.852c-.353-.078.689 1.262 4.461 5.732 1.215 1.439 1.733 1.918 1.259 1.171-.44-.7-1.839-2.525-3.1-4.051zm-14.4-10.244c-.423-.383-4.125-4.042-8.26-8.159s-7.7-7.508-7.956-7.563c-.3-.064-.278.06.066.355.657.569 14.52 14.317 15.68 15.551.488.52.993.867 1.133.776s.223-.184.18-.215-.408-.352-.844-.746zm-3.047-.412c-4.663-4.688-9.82-9.3-10.57-9.454-.311-.062-.244.087.21.469a115.183 115.183 0 0 1 9.92 9.192c3.826 3.919 6.028 5.9 5.059 4.551-.16-.224-2.239-2.364-4.619-4.757zm28.687 10.253a25.6 25.6 0 0 0-4.619.288 23.258 23.258 0 0 0 4.508.121 28.88 28.88 0 0 0 4.62-.29 25.94 25.94 0 0 0-4.509-.12zm-5.279-3.555c-.667.073-1.208.233-1.236.362s.469.173 1.138.1 1.205-.231 1.235-.361-.471-.173-1.136-.1zm-8.289-9.736a4.968 4.968 0 0 0-1.975.444c-.027.128.8.136 1.877.015a4.984 4.984 0 0 0 1.975-.444c.029-.13-.8-.136-1.878-.016zm7.482 34.909a6.978 6.978 0 0 0-2.424.278 5.812 5.812 0 0 0 2.329.16 7.545 7.545 0 0 0 2.423-.276 6.541 6.541 0 0 0-2.329-.162zm-41.979-63.582a46.393 46.393 0 0 0-4.148 3.044c-.786.707.274.057 2.844-1.742 2.27-1.591 4.121-2.95 4.149-3.043a22.642 22.642 0 0 0-2.845 1.742zM227 393.043c-2.689 1.741-3.765 2.5-2.388 1.683s3.592-2.247 4.9-3.172.175-.251-2.511 1.489zm41.177 50.511a.877.877 0 0 0-.593.125c-.171.111-.064.24.259.308s.571.016.594-.126-.079-.27-.26-.306zm-3.977-10.161a11.752 11.752 0 0 0-2.881.156 10.61 10.61 0 0 0 2.8.213 11.729 11.729 0 0 0 2.877-.154 10.5 10.5 0 0 0-2.8-.215zm-18.378-14.275c-4.562.317-10.582 1.059-10.619 1.307-.023.139.147.219.352.169s1.644-.1 3.191-.1a6.933 6.933 0 0 0 2.96-.367 8.911 8.911 0 0 1 3.277-.553 12.759 12.759 0 0 0 3.176-.405 6.2 6.2 0 0 0-2.338-.05z" transform="translate(-219.056 -335.504)"/></svg>