<svg id="Слой_1" data-name="Слой 1" xmlns="http://www.w3.org/2000/svg" viewBox="0 0 100.739 97.22"><defs><style>.cls-3{fill:#be9132}</style><clipPath id="clip-path"><path fill="none" d="M0 0h100.739v97.219H0z"/></clipPath></defs><g clip-path="url(#clip-path)"><path class="cls-3" d="M53.717 3.252c-8.038 4.1-19.223 10.027-25.679 13.6-11.138 6.16-16.963 9.48-17.338 9.878-.223.24-1.876 4.169-3.69 8.771a85.12 85.12 0 0 1-4.178 9.5 10.791 10.791 0 0 0-2.156 4.3 7.315 7.315 0 0 1-.6 1.751c-.3.5.2 1.15 3.306 4.352 5.4 5.568 18.2 19.575 24.233 26.512 2.4 2.769 2.93 3.567 2.943 4.486.015 1.033.043 1.06.383.367.347-.71.641-.467 5.337 4.4a52.868 52.868 0 0 0 5.618 5.352c.368.114.651.39.651.634s.783-.3 1.718-1.184a7.935 7.935 0 0 1 2.135-1.608 3.87 3.87 0 0 0 1.484-1 4.538 4.538 0 0 1 1.351-1 13.944 13.944 0 0 0 2.382-1.463c2.153-1.5 12.839-7.651 21.743-12.524 7.94-4.342 22.113-13.434 25.612-16.426.7-.6 1.013-1.337 1.418-3.371.457-2.3.461-2.7.033-3.5a56.614 56.614 0 0 1-1.85-6.236c-.753-2.935-1.736-6.559-2.185-8.055a10.343 10.343 0 0 1-.618-3.251c.136-.36-.663-1.484-2.45-3.451-1.452-1.6-4.3-4.82-6.287-7.121C83.6 22.991 76.264 15.024 67.882 6.153 64.1 2.152 61.5-.032 60.553 0c-.275.01-3.334 1.465-6.836 3.252m7-.6a.655.655 0 0 1-.532.333c-.2 0-.253-.133-.134-.333a.664.664 0 0 1 .534-.334c.2 0 .254.134.132.334m1.113.767c.316.379-.362.666-3.562 1.517-2.169.576-4.087 1.049-4.253 1.045-.593-.012 3.069-1.974 3.7-1.985a8.3 8.3 0 0 0 2-.5c1.669-.611 1.669-.611 2.113-.077M63.705 5.3l.951.983-.967.235c-.533.128-5.169 1.4-10.305 2.834s-9.369 2.564-9.406 2.517 1.784-1.16 4.022-2.464a28.029 28.029 0 0 1 8.9-3.7c2.634-.72 5.053-1.332 5.336-1.351a2.979 2.979 0 0 1 1.467.951m2.9 3.1c.836.965 2.663 3 4.068 4.536a29 29 0 0 1 2.552 3 10.128 10.128 0 0 1-2.7.934l-2.7.717-3.1-3.2c-2.713-2.8-3.032-3.254-2.55-3.618s.449-.392-.184-.234a2.332 2.332 0 0 1-1.718-.516 3.767 3.767 0 0 0-1.517-.7c-.632 0-2.7 1.021-5.97 2.947a18.11 18.11 0 0 1-4.019 1.755c-1.167.272-1.53.464-1.134.6.423.144-.366.7-2.834 2-1.884.992-5.4 2.917-7.836 4.286a39.118 39.118 0 0 1-7.155 3.282c-5.135 1.5-14.327 3.851-14.473 3.7-.091-.091.334-.469.935-.831 2.62-1.581 14.706-8.294 19.975-11.094 5.471-2.907 6.07-3.14 12.94-5.033 3.969-1.093 9-2.494 11.205-3.118s4.16-1.142 4.352-1.15A6.989 6.989 0 0 1 66.607 8.4m-8.722 2.919a.333.333 0 0 1-.35.333c-.2 0-.263-.143-.15-.333s.261-.334.351-.334.149.134.149.334m-.333 1.134a4.667 4.667 0 0 1-1.033 2.2c-.368 0-.368 0 .078-1.3.195-.567.491-1.034.655-1.034.18 0 .3.053.3.134m-1.334.5c0 .9-.724 2.034-1.3 2.034s-.6-.1-.284-1.167c.23-.767.562-1.168.967-1.168.333 0 .617.138.617.3m-2.377 1.767c-.543 1.014-.744.267-.254-.934.3-.733.429-.829.53-.4a2.252 2.252 0 0 1-.276 1.333m3.912.534c-.4.395-.553-.2-.3-1.134l.262-.968.118.952a2.027 2.027 0 0 1-.083 1.15m2.034-1.2c-.1.274-.179.2-.2-.2-.017-.334.062-.538.168-.433a.683.683 0 0 1 .033.633m1.267-.067a.682.682 0 0 1-.417.584c-.245.089-.416-.15-.416-.584s.171-.671.416-.583a.682.682 0 0 1 .417.583m-8.091.434c-.288 1.134-1.414 1.719-1.414.733a1.645 1.645 0 0 1 .733-.975c.9-.625.9-.625.681.242m8.928 2.534c-.438 2.6-1.169 2.982-.836.435.383-2.935.543-3.492.9-3.136.225.227.2 1.1-.064 2.7m-10.959-1.4a14.02 14.02 0 0 0-.723 2.167c-.381 1.469-1.128 2.569-1.494 2.2-.207-.206 1.072-3.935 1.544-4.5.552-.664 1.04-.566.673.134m5.619-.067a1.318 1.318 0 0 1-.683.5c-.151 0-.2-.234-.1-.5a.818.818 0 0 1 .684-.5c.4 0 .42.1.1.5m4.336.1c0 1.134-.41 2.735-.7 2.735-.334 0-.4-2-.1-2.8.282-.743.8-.7.8.067m-5.758.133a.969.969 0 0 1-.695.535c-.4.072-.494-.046-.346-.434.23-.6 1.24-.7 1.041-.1m8.167 0c.321.835-.225 3.092-.774 3.2-.46.089-.5-.1-.267-1.331.149-.8.272-1.626.28-1.868.015-.533.555-.533.761 0m-9.746.568a2.7 2.7 0 0 1-.7 1.417c-.536.6-.652.639-.5.166.108-.333.292-.982.4-1.417.245-.967.8-1.082.8-.166m-4.99 2.167c-.709 2.1-1.191 2.822-1.6 2.4-.236-.238 1.293-4.308 1.726-4.6.645-.432.62 0-.121 2.2m3.606-1.4c-.328 1-1.539 2.445-1.817 2.167a4.832 4.832 0 0 1 .4-1.683c.379-1.1.713-1.551 1.15-1.551.541 0 .574.133.267 1.067m23.728 1.634a9.946 9.946 0 0 1-2.751.918l-2.751.683-1.084-1.051c-.6-.582-.971-1.162-.834-1.3a14.07 14.07 0 0 1 2.752-.884l2.5-.634 1.084 1.017a4.855 4.855 0 0 1 1.084 1.251m-21.343-1.71c-.667.433-1.108.438-.841.009a1.035 1.035 0 0 1 .775-.334c.5 0 .508.038.066.325m10.651 1.128a3.35 3.35 0 0 1-.918.374c-.77.226-.946-.224-.52-1.325.194-.5.3-.484.9.117.366.366.614.752.533.834m-17.659-.851a21.68 21.68 0 0 1-.75 2.3c-.677 1.867-.912 2.157-2.418 3-.933.522-1.77.98-1.9 1.038-.507.23.633-2.7 1.167-3 .676-.378.694-.31.238.856-.221.568-.223.867-.005.867a.307.307 0 0 0 .334-.316 5.844 5.844 0 0 1 .35-1.25 5.236 5.236 0 0 0 .316-1.034 5.52 5.52 0 0 1 1.6-2.376c.7-.41 1.066-.442 1.066-.092m11.19 1.184l1.284 1.117-2.5.588c-3.435.809-3.719.894-3.536 1.061a14.148 14.148 0 0 0 3.07-.533c1.6-.376 2.975-.682 3.067-.682a5.964 5.964 0 0 1 1.167 1.083l1 1.084-2.134.583c-1.981.541-1.133.588 1.335.073 1.01-.21 1.209-.073 3.718 2.563l2.651 2.784-1.734.582c-1.645.553-1.1.573 1.367.05.809-.172 1.111.019 2.252 1.419a6.382 6.382 0 0 1 1.234 1.868c-.048.142.117.249.383.249a11.425 11.425 0 0 1 3.2 3.369c0 .13-.448.337-1.014.467s-.952.3-.869.383a2.768 2.768 0 0 0 1.268-.133c.968-.246 1.261-.151 2.185.7 1.334 1.225 1.378 1.757.167 2.051-2.8.68-9.14 2.654-8.838 2.753a25.561 25.561 0 0 0 4.286-1.049 16.357 16.357 0 0 1 3.618-.893c-.768.7-10.5 7.029-10.806 7.029a2.3 2.3 0 0 0-1 .668 74.434 74.434 0 0 1-10.835 6.75c-1.8.691-2.468 1.136-1.267.846 1.042-.251.967-.136-.566.864l-1.3.848-1.367-2.184a12.9 12.9 0 0 1-1.268-2.285c.055-.055 2.418-.824 5.219-1.7A34.247 34.247 0 0 0 57 49.108a48.69 48.69 0 0 0-5.453 1.5l-5.169 1.6-.917-1.067a13.006 13.006 0 0 1-1.416-2.017c-.282-.534-.59-.9-.7-.841-.334.182-2.844-3.04-2.568-3.3a29.313 29.313 0 0 1 3.9-1.271c3.335-.938 4.5-1.378 3.635-1.378-.182 0-2.1.524-4.267 1.167l-3.935 1.172-1.09-1.234c-1.3-1.468-1.356-1.661-.577-1.89.332-.1 1.869-.551 3.435-1.012s3.931-1.148 5.286-1.537a6.912 6.912 0 0 0 2.284-.868 50.11 50.11 0 0 0-6.1 1.568l-5.937 1.735L36.142 40a7.361 7.361 0 0 1-1.183-1.535c.046-.055 3.534-1.092 7.737-2.3s7.728-2.277 7.82-2.368c.354-.355-1.034-.057-4.136.886C42.613 35.832 34.842 38 34.508 38a5.428 5.428 0 0 1-1.284-1.318l-1.05-1.317 1.1-.35c1.074-.342 1.068-.346-.3-.184-1.234.146-1.468.063-1.969-.7-.688-1.048-.5-1.264 1.869-2.13 1-.366 1.4-.61.884-.538-.534.076-.833.031-.685-.1.511-.449 9-5.626 11.006-6.706 1.086-.587 4.436-2.462 7.47-4.181s5.593-3.127 5.7-3.136a6.958 6.958 0 0 1 1.485 1.1m-14.008.817a1.383 1.383 0 0 1-.85.833c-.467.124-.583.026-.446-.366.21-.6 1.162-1.471 1.38-1.262.074.071.036.427-.084.8m20.494.9c0 1.434-.045 1.5-1 1.5-1.051 0-1.2-.367-.8-1.9.171-.644.562-.917 1.53-1.06.148-.023.267.627.267 1.46m1.822-.5c1.081 1.133 1.047 1.26-.422 1.536-1.067.2-1.067.2-1.067-1.168 0-.767.118-1.368.267-1.368a3.966 3.966 0 0 1 1.222 1m-24.158.335c-.358.666-1.343.936-1.343.367 0-.316.967-1 1.434-1.024.147 0 .106.29-.091.657m20.084.166c-.119.668-.244.758-.616.451-.646-.528-.567-1.284.133-1.284.481 0 .6.2.483.833m15.475 1.251c1.11 1.146 3.8 4.1 5.986 6.569s5.079 5.588 6.436 6.937a16.724 16.724 0 0 1 2.338 2.568A47.224 47.224 0 0 1 89.1 40a10.831 10.831 0 0 0-1.767 1.113c-2.1 1.493-3.273 2.115-2.931 1.554.169-.279.1-.368-.2-.25-.255.1-2.5 1.08-4.969 2.167-4 1.763-16.46 6.42-17.175 6.42a32.86 32.86 0 0 1 3.736-2.584c3.67-2.37 4.6-2.792 11.238-5.08 6.57-2.263 7.995-2.987 6.437-3.271-.368-.067-.51.05-.4.33.136.362-4.5 2.149-10.833 4.176-1.055.337 1.666-1.617 5.3-3.807a48.957 48.957 0 0 0 4.564-3.001c1.132-1.04 1.008-2.266-.4-4a5.9 5.9 0 0 1-1.079-1.584 18.152 18.152 0 0 1 2.117-.7c1.1-.321 1.843-.636 1.651-.7a7.678 7.678 0 0 0-2.268.517l-1.917.634-4.694-5.488c-2.563-3-4.582-5.591-4.457-5.719a24.314 24.314 0 0 1 4.874-1.369 8.642 8.642 0 0 1 2.519 2.053m-37.585-.583c-.222.266-.495.421-.584.332-.222-.221.266-.832.667-.832.2 0 .167.2-.083.5m1.559.967c-.437 1.7-.871 2.509-1.542 2.873-.368.2-.667.3-.667.227a13.036 13.036 0 0 1 1.466-3.651c.7-.472.957-.284.743.551m25.547 1.634a13.905 13.905 0 0 1-.293 2.217c-.067.086-.551-.266-1.118-.813-1.3-1.252-1.3-2.856 0-3.207 1.577-.425 1.6-.4 1.411 1.8m-27.7.066a4.508 4.508 0 0 1-1.125 2.2c-.776.431-.763.132.1-2.169.949-2.534 1.736-2.56 1.026-.033m30.212 1.773c-.18 2.2-.641 2.751-1.589 1.893-.694-.627-.868-2.36-.447-4.461l.214-1.067.983.934c.891.845.97 1.1.839 2.7m-31.27-3.034a23.108 23.108 0 0 1-.733 2.234c-.673 1.867-1.1 2.505-1.669 2.519-.278.006 1.012-3.953 1.485-4.553.341-.433.917-.559.917-.2m26.013.467c0 .6-.072.643-.5.3a1.327 1.327 0 0 1-.5-.7c0-.161.233-.3.5-.3.287 0 .5.3.5.7m-27.681.233c0 .5-.9 1.5-1.233 1.372-.514-.192.134-1.639.734-1.639.267 0 .5.125.5.267M35.635 24c-.174.667-1.1.948-1.1.334 0-.235.835-.921 1.2-.988a1.7 1.7 0 0 1-.107.654m-6.663 1.666c-1.582 1.013-3.169 1.607-7.137 2.669-4.969 1.333-5.118 1.352-5.72.751s-.416-.67 6.153-2.4c3.737-.984 7.07-1.9 7.437-2.049 1.5-.6 1.234-.229-.733 1.031m4.763-.7a.8.8 0 0 1-.578.367c-.21 0-.184-.2.065-.5.45-.541.864-.434.513.133m39.675 4.17a8.351 8.351 0 0 1-.382 2.167c-.372.375-2.454-2.468-2.294-3.135a14.689 14.689 0 0 0 .175-2.335l.016-1.667 1.335 1.5c1.311 1.475 1.331 1.534 1.15 3.469m-36.742-3.7c-.5 1.6-.766 2.119-1.326 2.591-.52.435-.545.376-.313-.691.42-1.934.79-2.668 1.346-2.668.394 0 .47.2.293.768m-1.81 1.134c-.491 1.533-1.226 2.767-1.651 2.767-.453 0 .634-3.436 1.235-3.9.766-.594.873-.3.416 1.134m-1.451-.318l-.574 2.018c-.351 1.234-1.8 3-2.161 2.635A16.66 16.66 0 0 1 31.94 26c.365 0 .346.2-.237 2.333s-.574 2.075-.23 1.876A6.015 6.015 0 0 0 32.2 28.1c.487-2.2.588-2.434 1.039-2.434.19 0 .263.25.167.583m-2.284.5c-.083.229-.344 1.318-.581 2.418-.46 2.134-1.337 3.622-1.337 2.268a15.242 15.242 0 0 1 1.058-4.67 1.126 1.126 0 0 1 .676-.434c.187 0 .267.184.184.418m-1.718 1.168c-.093.326-.261 1.132-.384 1.833S28.674 31 28.505 31c-.367 0-.367 0 .07-2 .2-.933.5-1.668.681-1.668s.245.25.149.585m-3.935.113c-.72.42-.733.937-.042 1.7.3.334.483.652.409.717s-1.568.6-3.3 1.183l-3.17 1.07-1.085-1.234c-.584-.666-.991-1.325-.883-1.434.19-.189 7.637-2.26 8.3-2.309.177-.013.067.131-.233.306m2.445 1.538c-.3.53-.345.5-.361-.268a2.056 2.056 0 0 1 .247-1.134c.405-.409.5.733.114 1.4m47.65.435c0 .536-.634 1-1.367 1-.168 0-.3-.684-.3-1.551V27.9l.834.767A2.451 2.451 0 0 1 75.561 30M27.2 29a.333.333 0 0 1-.35.333c-.2 0-.265-.142-.15-.333s.26-.334.35-.334.15.134.15.334m-14.022 2.1a47.729 47.729 0 0 1-.628 5.069c-.574 3.435-.612 4.195-.186 3.769a43.039 43.039 0 0 0 .9-4.569c.633-3.8.8-4.337 1.2-3.919s.35 1.183-.4 5.653c-.475 2.835-.867 5.44-.867 5.77 0 1.385.326-.034 1.15-5 .488-2.934.93-5.381.985-5.436a16.855 16.855 0 0 1 3.054 3.6 15.82 15.82 0 0 0-.32 2.469c-.131 1.534-.091 2.105.117 1.667a5.441 5.441 0 0 0 .329-1.868c.015-1.367.276-1.76.855-1.291.256.207.341.925.234 1.992-.11 1.1-.038 1.667.217 1.667.214 0 .382-.551.382-1.251v-1.25l.835.851.834.85-.5 3.818c-.275 2.1-.5 3.857-.5 3.9s.121.084.3.084a11.271 11.271 0 0 0 .733-3.485c.357-2.869.516-3.418.9-3.1 1.01.824 1.063 1.487.4 4.889-.642 3.268-.845 5.321-.493 4.969a29.9 29.9 0 0 0 .868-3.635c.783-3.868 1.1-4.479 1.656-3.236.3.675.21 1.568-.488 4.67-.941 4.168-1.044 4.933-.6 4.436a20.473 20.473 0 0 0 1.052-3.67c.943-4.168 1.156-4.6 1.686-3.435.327.721.244 1.5-.49 4.6a20.768 20.768 0 0 0-.717 3.9c.177.177.317-.3 1.219-4.169a11.1 11.1 0 0 1 .965-3.068 1.769 1.769 0 0 1 .784.584c.477.521.482.85.048 3.084-.569 2.935-.571 2.987-.162 2.335a8.1 8.1 0 0 0 .531-2.252c.12-.966.329-1.75.467-1.75a11.055 11.055 0 0 1 1.934 1.784l1.684 1.784-.8 3.969-.967 4.8c-.12.6-.083.694.133.334a28.021 28.021 0 0 0 1.025-4c.978-4.735.917-4.594 1.659-3.834.64.656.635.733-.337 4.669-1.1 4.435-1.106 4.5-.678 4.5a14.776 14.776 0 0 0 1.233-3.836 16.277 16.277 0 0 1 1.2-3.834c.8 0 .792 1.434-.052 5.836-.824 4.3-.922 5.208-.515 4.8.073-.074.515-2.068.983-4.436s.9-4.354.967-4.419.393.184.7.518c.554.6.539.851-.284 4.885-.476 2.335-.861 4.493-.853 4.786.029 1.2.6-.534 1.3-3.969.927-4.535.966-4.647 1.4-3.9.225.393.114 1.651-.359 4.085a40 40 0 0 0-.683 4.519c0 1.652.595 1.1 1.009-.934 1.7-8.4 2.2-8.036.992.734-.592 4.3-.618 5.225-.134 4.762a52.8 52.8 0 0 0 .9-5.245c.731-5.069.737-5.083 1.385-4.369s.639.783-.257 6.286c-.931 5.7-1.039 6.65-.727 6.342.151-.149 2.167-10.644 2.167-11.278 0-.072.451.3.985.818s.9 1.088.8 1.25-.458 2.968-.792 6.2c-1.058 10.239-1.811 15.742-2.159 15.742-.18 0-.681-.517-1.084-1.118a2.532 2.532 0 0 1-.534-2.168c.138-.666.077-1.05-.166-1.05-.219 0-.383.3-.383.7 0 .6-.077.636-.535.251s-.5-.885-.31-3.119c.258-3.1-.073-3.232-.421-.166l-.235 2.067-1.084-1.5a5.228 5.228 0 0 1-1.134-2.785c-.04-1.034-.075-1.1-.183-.35s-.221.864-.617.55a3.639 3.639 0 0 1-.535-2.268l-.049-1.884-.2 1.451c-.2 1.434-.208 1.443-.8.784-.482-.537-.564-1.017-.416-2.453.127-1.233.086-1.578-.134-1.116a4.5 4.5 0 0 0-.333 1.485l-.017.816-.727-.718c-.614-.614-.708-1.034-.65-2.934.045-1.5-.047-2.148-.284-2a2.991 2.991 0 0 0-.35 1.734c0 1.3-.071 1.46-.5 1.118-.338-.272-.522-1.118-.567-2.618-.057-1.9-.084-1.99-.183-.617q-.119 1.6-.516 1.467c-.266-.089-.408-1.051-.419-2.852a11.912 11.912 0 0 0-.217-2.9c-.11-.1-.3.8-.433 2.033-.214 2.035-.277 2.174-.766 1.685-.414-.414-.514-1.067-.451-2.9.058-1.634-.024-2.3-.268-2.151a3.617 3.617 0 0 0-.365 1.951l-.021 1.735-.816-.934c-.659-.753-.827-1.334-.867-3l-.05-2.067-.2 1.784-.2 1.784-1.084-1.35a6.117 6.117 0 0 1-1.083-1.7.32.32 0 0 0-.3-.35 12.459 12.459 0 0 1-2.2-2.272c-2.573-3.063-4.8-5.6-8.226-9.371a23.14 23.14 0 0 1-2.925-3.618.425.425 0 0 0-.416-.417c-.534 0-1.935-1.328-1.935-1.835a41.167 41.167 0 0 1 3.568-8.4 6.448 6.448 0 0 0 1.119-2.568c.8-3.583.689-1.568-.179 3.135a40.617 40.617 0 0 0-.751 5.1c.113.337.951-3.768 2.281-11.172.435-2.434.969-2.716.946-.5M27.2 32.4c0 .779-.2 1.036-1.033 1.326-1.465.509-.935.712.632.24 1-.3 1.29-.532 1.152-.933-.1-.294.379.067 1.066.8l1.251 1.335-1.284.417L27.7 36l1.518-.184c1.467-.177 1.553-.14 2.582 1.15 1.121 1.406 1.1 1.483-.4 1.843-.5.121-.857.3-.767.391a2.672 2.672 0 0 0 1.351-.15c1.126-.3 1.242-.25 2.388 1.051 2.157 2.451 2.334 2.668 5.36 6.57 1.628 2.1 3.234 4.122 3.55 4.469.666.733.767 1.4.257 1.7a.7.7 0 0 0-.317.6c.009.213.306.05.634-.351l.618-.75 2.268 3.085a41.256 41.256 0 0 0 2.567 3.286 21.992 21.992 0 0 0 4.535-2.624c5.392-3.594 5.336-3.568 13.374-6.413 5.865-2.076 8.537-3.138 15.674-6.232.634-.274 1.015-.359.833-.185-.4.385-28.095 16.754-28.346 16.754-.091 0-.091-.417 0-.918.129-.71.024-.616-.467.417-1.1 2.3-2.594 2.6-2.18.434.083-.441-.132-.2-.505.567a8.343 8.343 0 0 0-.673 1.7c-.029.466-3.576 2.888-4.013 2.738-.164-.057-2.031-2.187-4.135-4.723s-6-6.969-8.637-9.837-5.7-6.271-6.8-7.554c-5.1-5.969-8.077-9.671-7.911-9.838a31.477 31.477 0 0 1 3.242-1.205c3.367-1.144 3.9-1.061 3.9.609m51.427.7c1.1 1.4 1.1 1.4-.135 1.69-.847.2-.909.127-1.034-1.206l-.134-1.418-.057 1.568c-.059 1.634-.276 1.9-.976 1.2-.434-.434-.566-3.637-.167-4.036.274-.274 1.193.534 2.5 2.2m-3.07-.768c0 .735-.12 1.335-.267 1.335a3.942 3.942 0 0 1-1.2-.968l-.935-.966.935-.338c1.434-.517 1.467-.5 1.467.937m5.676 3.97c0 .127-.467.5-1.033.832-1.035.6-1.035.6-1.869-.22-1-.985-.833-1.454.668-1.879.867-.244 1.177-.176 1.651.366a2.579 2.579 0 0 1 .583.9m13.115 4.371a4.591 4.591 0 0 1-.775 2.668c-.527 1-.974 1.7-.982 1.535a50.319 50.319 0 0 1 .847-5.17c.195-.6.662-.1.91.967m-2.11 3.168c-.637 3.427-1.023 4.47-4.275 11.506l-.693 1.5.183-1.252c.108-.733.052-1.249-.134-1.249a15.188 15.188 0 0 0-1.266 4.018c-.766 3.234-1.11 4.145-1.768 4.669-.434.346-.88.594-.951.531-.121-.11.427-1.682 1.4-4.016.182-.434.149-.562-.1-.409-.861.529-.306-1.126 2.563-7.629 1.985-4.5 2.228-4.9 2.424-4 .122.566.235.855.26.667.4-3 2.393-8.568 2.89-8.071a24.476 24.476 0 0 1-.534 3.735m-1.825-1.1c-.246 1.167-4.59 10.988-4.778 10.8a5.221 5.221 0 0 1 .217-1.482c.176-.767.205-1.384.067-1.384a11.359 11.359 0 0 0-.949 3.1c-.654 2.9-4.124 11.945-4.336 11.305a43.511 43.511 0 0 1 1.1-5.1 100.931 100.931 0 0 1 5.234-14.807l.6-1.335-.151 2.5-.149 2.5.333-1.835c.182-1 .409-2.311.5-2.884a2.487 2.487 0 0 1 1.234-1.751 8.22 8.22 0 0 1 1.184-.7 2.426 2.426 0 0 1-.108 1.067m4.2 1.267c-.344 1.6-5.05 13.095-5.272 12.873a51.444 51.444 0 0 1 1.406-6.636c.121-.3.354-.489.5-.4s.357-.3.476-.9c.242-1.233 2.9-6.994 3.126-6.769a6.165 6.165 0 0 1-.232 1.834m-9.035 3.5c-1.89 4.646-2.146 4.635-.826-.033.433-1.535 1.716-3.673 2.021-3.369a19.5 19.5 0 0 1-1.195 3.4m10.392-.7c.05.6-4.416 11.283-4.628 11.071-.036-.036.3-1.417.751-3.051a25.019 25.019 0 0 0 .817-3.852 6.667 6.667 0 0 1 .783-2.335 21.594 21.594 0 0 0 1.209-2.776c.417-1.267.444-1.287.716-.534a7.035 7.035 0 0 1 .343 1.485m-11.6-.368a14.811 14.811 0 0 1-.7 1.685 2.289 2.289 0 0 0-.274 1.45c.321.833-1.378 6.77-3.112 10.872a15.06 15.06 0 0 0-1.35 3.9c.37 0-.334 1.894-.867 2.34-.348.29-.341-.072.034-1.839a17.042 17.042 0 0 1 .784-2.8c.175-.334.23-.69.123-.8-.364-.374.927-4.3 2.344-7.135 1.868-3.737 2.323-5.4.576-2.1a10.573 10.573 0 0 1-1.343 2.236c-.009-.147.367-1.8.834-3.67.676-2.7 1.036-3.555 1.751-4.147 1.134-.94 1.5-.936 1.2.012m-79.2 1.768c.57.734.7 1.383.7 3.518 0 1.468-.147 2.619-.334 2.619-.641 0-1-1.368-1-3.8a6.606 6.606 0 0 0-.335-2.7c-.21-.126-.333.734-.333 2.335s-.122 2.457-.333 2.326c-.442-.276-.433-3.693.013-4.527.469-.88.794-.835 1.622.233m74.9 5.286a49.368 49.368 0 0 1-1.867 6.07c-.273.333-.273.45 0 .45.235 0 .292.334.157.933-.248 1.1-2.52 6.141-2.691 5.971-.235-.235.867-5.2 1.367-6.171.276-.533.373-1.1.216-1.266a3.536 3.536 0 0 1 .155-1.969c.464-1.767 3.868-9.924 4.063-9.735.056.054-.571 2.616-1.4 5.717m-.517-2.668A9.955 9.955 0 0 1 78.3 53.21c-.332-.338.9-4.262 1.464-4.675.335-.242.7-.406.769-.344a12.245 12.245 0 0 1-.985 2.634m16.325 2.751c-.99 2.568-1.968 4.126-1.968 3.135a62.468 62.468 0 0 1 2.061-7.37l.374-.834.3 1.15c.25.957.121 1.618-.766 3.919m-18.674.733a50.634 50.634 0 0 1-1.79 6.738c-.922 2.267-1.105 3.286-.353 1.967.882-1.544.521-.433-.661 2.034-.639 1.334-1.165 2.194-1.165 1.9a36.559 36.559 0 0 1 1.215-5.669 8.378 8.378 0 0 0 .3-2.035 50.478 50.478 0 0 1 .8-5.068c.527-2.568.857-3.47 1.435-3.919a3.417 3.417 0 0 1 .95-.583 28.21 28.21 0 0 1-.733 4.634m-69.27-.432a14.94 14.94 0 0 1-.033 2.8 3.077 3.077 0 0 1-.75-.55c-.51-.454-.617-1.051-.617-3.385 0-2.768.015-2.822.651-2.252.525.473.668 1.118.749 3.385m67.281-1.764a15.5 15.5 0 0 1-.832 2.4l-.817 2 .2-1.634a13.838 13.838 0 0 1 .488-2.4c.31-.834.986-1.091.961-.366m-64.963 4.318l.117 2.918-.763-.767c-.642-.643-.8-1.25-.949-3.752l-.184-2.985.834.834c.743.744.846 1.151.95 3.752m81.149-.717c-.587 2.2-1.058 3.3-1.585 3.7-.4.3-.8.512-.85.45a31.394 31.394 0 0 1 1.467-3.818 24.994 24.994 0 0 1 1.684-3.585 20.362 20.362 0 0 1-.716 3.251m6.169-2.068a1.981 1.981 0 0 1-.5 1.367c-.557.447-.606.233-.3-1.3.262-1.3.8-1.346.8-.067m-26.5 2.618a6.45 6.45 0 0 1-1 2.267 28.159 28.159 0 0 0-2.317 4.336c-1.486 3.168-1.875 3.78-1.9 2.985-.024-.732-.143-.5-.445.867-.389 1.767-1.832 5.775-2 5.57a10.866 10.866 0 0 1 .149-1.934 4.049 4.049 0 0 0-.05-2.019c-.156-.1.315-1.617 1.05-3.385 1.266-3.034 1.822-5.231.787-3.1-.46.948-.475.868-.27-1.5a9.565 9.565 0 0 1 .572-2.935 7.153 7.153 0 0 1 2.379-1.4 9.6 9.6 0 0 1-.349 2.234A11.769 11.769 0 0 0 67.307 61c.064.285.386-.834.716-2.5.591-2.968.625-3.031 1.986-3.868.767-.472 1.435-.724 1.5-.567a7.993 7.993 0 0 1-.434 2.2m.294 5.287c-1.7 7.969-2.919 11.124-4.813 12.464-.567.4-1 .564-1 .374s1.06-2.551 2.351-5.252a25.917 25.917 0 0 0 2.168-5.386 7.621 7.621 0 0 1 .337-2.534c.838-3.336 2.267-7.714 2.393-7.338.065.2-.583 3.67-1.436 7.672M12.68 59.178l.217 3-1.017-.978c-.975-.943-1.017-1.1-1.017-3.836V54.51l.8.834c.676.7.834 1.3 1.017 3.834m75.536-1.333c-.618 2.635-1.233 3.784-2.05 3.823-.144.006.019-.722.356-1.589a37.61 37.61 0 0 1 2.272-5.279 19.965 19.965 0 0 1-.578 3.042m5.184-1.731c-.228 1.067-.789 2.045-1.033 1.8a7.443 7.443 0 0 1 1.1-2.9c.092 0 .061.5-.067 1.1m-19.475 3.1a17.729 17.729 0 0 1-1.512 4.8c-.937 1.6-.941 1.568-.145-1.834a38.791 38.791 0 0 1 2.19-6.37 26.882 26.882 0 0 1-.533 3.4m-59.343 2.057c.115 2.734.113 2.746-.551 2.084-.534-.534-.689-1.217-.783-3.419-.116-2.734-.114-2.747.55-2.084.533.534.691 1.218.784 3.419m46.455 7.086c-2.563 6.5-4.063 9.886-4.335 9.788s-.492.368-.634 1.334c-.121.834-.421 1.565-.683 1.666-.627.245-.633-.548-.019-2.616A6.573 6.573 0 0 0 55.7 76.2a21.294 21.294 0 0 1 1.333-4.852c.819-2.3 1.491-3.833 1.5-3.418a24.073 24.073 0 0 1-1.317 4.318 23.085 23.085 0 0 0-1.234 3.884c.054.175.521-.832 1.034-2.233a10.47 10.47 0 0 1 1.334-2.8 6.616 6.616 0 0 0 .933-2.418 24.213 24.213 0 0 1 1.235-3.669l.7-1.5-.173 1.4c-.35 2.83.412 1.334 1.1-2.168.6-3.069.835-3.674 1.638-4.318.533-.429.983-.594 1.05-.383s-1.645 4.835-3.8 10.3m35.2-10.2a11.578 11.578 0 0 1-1.33 2.735c-.016-.667.8-2.869 1.062-2.869.162 0 .268.054.268.134m-1.985 3.168a7.344 7.344 0 0 1-1.212 2.889c-.9.68-1.154.6-.823-.253 1.641-4.235 2.253-5.473 2.557-5.169a14.675 14.675 0 0 1-.517 2.534m-77.721 1.935c0 2.4-.327 3.058-.929 1.868a14.684 14.684 0 0 1-.5-3.218l-.2-2.618.817.75c.718.659.817 1.051.817 3.218m44.723-1.266c-1.227 3.368-1.762 4.331-1.5 2.7.456-2.834 1.563-5.335 2.36-5.335a20.178 20.178 0 0 1-.861 2.635m35.078-1.168a2.334 2.334 0 0 1-.8 1.551c-.552.291-.544.184.093-1.351.8-1.934 1-1.989.708-.2m-15.807.851a5.3 5.3 0 0 1-.852 1.6 6.568 6.568 0 0 1 .618-1.851 4.8 4.8 0 0 1 .85-1.6 6.607 6.607 0 0 1-.616 1.852m2.367.8a6.822 6.822 0 0 1-1.067 2.1c-.252.148-.289.017-.117-.417.139-.352.562-1.433.95-2.434s.752-1.653.818-1.468a7.386 7.386 0 0 1-.584 2.218m9.176-1.684c-.078.223-.434 1.434-.805 2.734a5.5 5.5 0 0 1-1.369 2.765c-.889.548-.887.17.011-2.7a6.092 6.092 0 0 1 1.423-2.715c.867-.606.919-.612.739-.086m-32.658 1.469a98.7 98.7 0 0 1-3.43 10.639c-.335-.336 1.052-6.87 1.948-9.171 1.116-2.868 1.83-3.576 1.482-1.468m4.917.7c-.2 1.717-2.384 7.671-4.6 12.539a20.385 20.385 0 0 0-1 2.6c-.217.866-1.353 2.186-1.638 1.9-.119-.121 7.2-18.974 7.366-18.975a9.484 9.484 0 0 1-.124 1.933M58.22 61.93a2 2 0 0 1-.335.75c-.266.4-.333.351-.333-.249 0-.4.156-.751.333-.751.2 0 .335.1.335.25M18.2 65.282c0 2.535 0 2.535-.667 1.884-.584-.568-.64-.933-.45-2.9.176-1.834.3-2.184.667-1.885.307.252.45 1.169.45 2.9M69 64.214c-1.159 4.469-5.563 12.793-6.35 12.006a6.84 6.84 0 0 1 .65-2c.434-1.034.873-1.786.983-1.685s.434-.617.726-1.616c.965-3.3 3.935-9.16 4.443-8.758A14.473 14.473 0 0 1 69 64.215m19.7.65a17.261 17.261 0 0 1-1.2 2.718c-.744.886-.854.334-.366-1.834a5.527 5.527 0 0 1 1.37-3.034c.467-.432.913-.655.966-.485a11.161 11.161 0 0 1-.766 2.635m-32.259.384c-.506 2.634-2.449 8.121-2.043 5.769.287-1.667 1.857-8.115 2.054-8.437.449-.735.444.3-.011 2.668M53.584 68.4c-.918 2.634-1.927 5.641-2.244 6.687-.99 3.266-.874 1.868.2-2.434 1.409-5.637 2.322-8.392 2.944-8.883.3-.238.584-.364.65-.288a44.9 44.9 0 0 1-1.55 4.918m-33.9-1.416c.149 2.4.141 2.425-.5 1.85-.525-.473-.65-1.034-.65-2.935 0-2.1.054-2.3.5-1.85a5.716 5.716 0 0 1 .651 2.935m60.322-2.37c-.231.968-.78 1.862-1 1.635a7.22 7.22 0 0 1 1.128-2.568 2.325 2.325 0 0 1-.124.933m5.568 1.7c-.782 1.968-.8 2.034-.409 2.034.16 0 .472-.35.668-.751.309-.633.37-.656.387-.15.021.6-1.565 2.426-1.855 2.136-.245-.246.778-4.236 1.223-4.77.706-.847.7-.3-.014 1.5m-13.22 1.471c-.353 1.9-.747 3.059-1.167 3.435-.917.823-1.112.4-.66-1.434.386-1.568 2.037-5.194 2.261-4.97a20.531 20.531 0 0 1-.434 2.969m4.872-1.6c-.251 1.1-1.232 2.391-1.569 2.065a7.822 7.822 0 0 1 .816-1.814 9.137 9.137 0 0 1 .984-1.634 6.684 6.684 0 0 1-.231 1.383m-24.511-.168c-.271 1.233-5.145 15.627-5.162 15.241-.018-.44 2.593-11.606 3.129-13.374.735-2.434 2.517-4.07 2.033-1.867M21.6 69.25l.134 2.4-.767-.7c-.654-.6-.768-1.051-.768-3.052 0-2.334 0-2.346.634-1.7.476.487.667 1.249.767 3.05m53.122-2.167c-.3 1.768-.671 2.483-1.529 2.944-.647.346-.654.325-.2-.743a17.451 17.451 0 0 1 1.833-3.6 3.787 3.787 0 0 1-.1 1.4m9.156 1.218l-.382 2.018-4.052 2.4c-2.234 1.324-4.164 2.461-4.3 2.535s-.077-.25.134-.718.489-.85.616-.85a6.125 6.125 0 0 0 .967-2 5.2 5.2 0 0 1 1.435-2.368c.663-.347.688-.316.466.584a12.576 12.576 0 0 1-.882 2.217 7.86 7.86 0 0 0-.652 1.5c0 .55 1.276-1.3 2.3-3.334 1.761-3.5 2.769-3.963 2.045-.934a4.8 4.8 0 0 0-.224 1.884 8.351 8.351 0 0 0 1.451-2.5 14.781 14.781 0 0 1 1.367-2.568 10.747 10.747 0 0 1-.283 2.134m-1.1-.567c-.26.6-.5.932-.514.717-.047-.6.622-2.21.83-2a2.436 2.436 0 0 1-.316 1.284m-33.7 3.318c-1.333 4.4-1.808 5.678-1.838 4.936a68.236 68.236 0 0 1 2.35-8.638c.847-1.905.562.134-.518 3.7m4.1 2.135c-1.554 6.77-2.818 10.775-3.682 11.672-1.173 1.217-.945.267 2.59-10.805 1.192-3.735 2.213-6.717 2.278-6.654s-.466 2.651-1.186 5.787m-5.473-2.2a15.212 15.212 0 0 1-.729 3.036c-.2 0 .232-3.536.631-5.1.6-2.367.666-1 .1 2.066m1.072-2.566c-.1.273-.179.2-.2-.2-.017-.334.062-.539.167-.433a.684.684 0 0 1 .033.634m-25.279 1a4.326 4.326 0 0 1 1.034 3.168c0 .966-.136 1.767-.3 1.767a3.449 3.449 0 0 1-1.167-1.033c-.732-.874-.867-1.368-.867-3.169a8.84 8.84 0 0 1 .133-2.134 8.489 8.489 0 0 1 1.167 1.4m39.578 1.7a11.148 11.148 0 0 1-1.742 5.67c-.631 1.167-1.785 1.835-1.785 1.033a78.307 78.307 0 0 1 3.536-9.137 11.431 11.431 0 0 1-.009 2.434m-8.009 2.768c-.454 3.135-1.912 8.165-2.627 9.072-.742.938-.794.233-.19-2.536s2.986-10.159 3.2-9.938a28.12 28.12 0 0 1-.384 3.4m20.3-.834c-1.451 3.3-1.84 3.405-1.133.3.289-1.268 1.535-2.908 1.922-2.532a8.458 8.458 0 0 1-.789 2.231M26.2 74.653v2.2l-.666-.833a4.162 4.162 0 0 1-.667-2.8c0-1.934.011-1.958.667-1.367.535.482.666 1.034.666 2.8m47.168-.133c-.227 1.5-.844 2.5-1.545 2.5-.18 0 .019-.567.434-1.233s.582-1.12.366-.985c-.233.146-.4.1-.4-.116s-.138-.284-.3-.183-.224-.118-.132-.484a1.714 1.714 0 0 1 .5-.885c.207-.134.251.084.117.585-.186.685-.141.666.316-.134.725-1.267.931-.967.645.934m-45.515 1.952c-.015 1.968-.039 2.023-.6 1.35-.751-.9-.611-4.422.151-3.789.312.258.46 1.071.449 2.439m43-.5c-.3 1.4-.554 1.817-1.383 2.252l-1.018.533.684-1.117a10.429 10.429 0 0 0 .929-1.951c.266-.9.827-1.763 1.023-1.568a6.31 6.31 0 0 1-.235 1.851m-21.129 2.751c-1.3 5.736-1.787 7.235-2.511 7.634-.368.2-.667.28-.667.17 0-.5 3.777-11.863 3.9-11.738a26.6 26.6 0 0 1-.724 3.934m19.532-2.768a8.416 8.416 0 0 1-1.7 3.234c-.4.239-.435-1.666-.052-2.634a4.006 4.006 0 0 1 1.952-1.52 3.526 3.526 0 0 1-.2.92m-39.716 1.517a8.563 8.563 0 0 1-.2 1.784c-.364 1.343-.8.468-.8-1.6 0-1.768.066-1.982.5-1.634a2.165 2.165 0 0 1 .5 1.45m17.174 4.786c-1.189 5.1-1.5 6.146-1.5 5.035 0-1.733 2.254-10.811 2.6-10.47a50.556 50.556 0 0 1-1.1 5.435m20.027-3.8c-.168 1.135-.4 1.554-1.034 1.851-.433.2-.817.321-.817.25a14.173 14.173 0 0 1 1.868-3.768 3.851 3.851 0 0 1-.017 1.667m-35.884 1.682c-.015 1.868-.059 1.993-.5 1.4a4.958 4.958 0 0 1-.483-2.451c0-1.567.064-1.749.5-1.4.35.28.5 1.017.484 2.451m33.362.217c-.44 1.067-1.473 1.691-1.216.734.087-.322.254-1 .386-1.567a2.377 2.377 0 0 1 .634-1.256c.542-.345.664.955.2 2.089M32.874 82.09c0 1.767-.238 1.97-1.136.967-.476-.531-.554-.984-.382-2.217.21-1.5.237-1.532.868-.967.477.428.65 1.016.65 2.217m29.359-1.9c-.572 1.5-1.346 2.835-1.646 2.835-.426 0 .25-2.367.877-3.068.757-.848 1.136-.734.769.233m-2.947 2.384q-.567 1.552-.667.885c-.126-.834.468-2.435.9-2.435.186 0 .083.683-.234 1.55m-24.746 1.5c0 .9-.146 1.618-.332 1.618-.559 0-1-1.268-1-2.868 0-1.535.014-1.555.668-.967.5.444.665 1.018.665 2.217m23.546-1.3a6.438 6.438 0 0 0-.2 1.3 1.856 1.856 0 0 1-.866 1.118c-.868.567-.868.567-.621-.2.557-1.734 1.19-2.967 1.522-2.967.211 0 .282.316.166.75m-21.878 3.35c0 1.634-.013 1.655-.668 1.068-.492-.445-.666-1.035-.666-2.269 0-1.634.013-1.654.666-1.067.5.445.668 1.035.668 2.268m19.23-.266c-.4 1.042-.848.467-.469-.6.275-.767.419-.9.515-.467a2.192 2.192 0 0 1-.046 1.068m-1.957-.333c-.23 1.2.319 1.357.581.166.126-.567.336-1 .488-1s.093.467-.117 1.033c-.356.968-2.715 2.911-3.084 2.545-.265-.263.2-1.291.5-1.107.146.09.507-.438.8-1.171.584-1.467 1.079-1.744.834-.466M38.41 88.143a6.8 6.8 0 0 0-.217 1.385c-.014.578-.125.533-.834-.334a3.433 3.433 0 0 1-.8-2.5l.016-1.5 1.017 1.117c.729.8.961 1.321.818 1.834m12.673-.734c-.493 1.1-.5 1.1-.3.118q.336-1.7.635-1.4c.09.09-.063.685-.332 1.284m-1.068.7a3.866 3.866 0 0 1-.866 1.75c-.667.668-.667.668-.461-.233.35-1.534.841-2.6 1.194-2.6.195 0 .25.45.133 1.084m-1.384.266c-.1.368-.259.607-.346.518-.174-.18.163-1.2.4-1.2.073 0 .048.316-.05.683m-8.76 1.479c0 1.268-.415 1.707-.978 1.035a2.241 2.241 0 0 1-.174-1.685c.179-1 .3-1.148.685-.834a2.264 2.264 0 0 1 .467 1.484m7.783-.4c-.248 1.333-.7 2.234-1.114 2.234-.276 0 .335-2.2.833-3 .369-.6.478-.3.281.767m-1.309.632c-.78 2.5-1.373 3.113-.97 1 .273-1.434.423-1.734.865-1.734.2 0 .24.3.1.733m-1.739 1.185c-.092.5-.235.72-.317.484-.149-.434.092-1.4.35-1.4.072 0 .057.417-.033.917"/><path class="cls-3" d="M56.985 28.8a10.6 10.6 0 0 0-2.667.666c-.279.279 1.468.055 4.9-.629 2.735-.546 1-.573-2.235-.037m-.93 2.532l-1 .267h1a9.155 9.155 0 0 0 2-.267l1-.266h-1a9.093 9.093 0 0 0-2 .266m-11.424.568a1.763 1.763 0 0 0 1 0c.237-.094-.015-.166-.582-.166s-.749.072-.418.166m-1.35 1.925a8.642 8.642 0 0 0-2.317.676c-.141.149.116.178.582.066s1.551-.3 2.419-.417a4.1 4.1 0 0 0 1.774-.517c.209-.333.209-.333-2.458.192m16.108 3.242c-3.435.853-3.881.989-3.735 1.136a24.788 24.788 0 0 0 5.57-1.223c.434-.241.434-.276 0-.261a13.063 13.063 0 0 0-1.835.348M45.93 46.073c-.966.181-1.708.409-1.617.5.259.256 3.568-.3 3.568-.6 0-.18-.034-.286-.083-.267s-.9.186-1.868.367M86.266 36c-.961 2.234-.729 2.506.287.333a4.56 4.56 0 0 0 .613-1.851c-.092-.1-.5.584-.9 1.518m1.352 0c-.414.733-.615 1.333-.451 1.333A5.242 5.242 0 0 0 88.5 34.8c-.072-.073-.469.467-.881 1.2m-71.531-.265c-.106.613-.278 2.134-.389 3.435s-.267 2.667-.35 3.085c-.081.4-.026.75.116.75a16.418 16.418 0 0 0 .653-4.068c.373-3.935.359-5.466-.03-3.2m14.118 17.44a6.357 6.357 0 0 0-.233 2.066c.09.091.349-.7.566-1.733a6.321 6.321 0 0 0 .234-2.068c-.091-.09-.35.7-.567 1.735m14.34 12.956c0 .119-.383 2.184-.85 4.586a32.462 32.462 0 0 0-.717 4.752 21.561 21.561 0 0 0 1.05-4.385 28.7 28.7 0 0 0 .718-4.971c-.12-.118-.2-.112-.2.018"/></g></svg>