<svg id="Слой_1" data-name="Слой 1" xmlns="http://www.w3.org/2000/svg" xmlns:xlink="http://www.w3.org/1999/xlink" viewBox="0 0 551.034 551.034"><defs><style>.cls-1{fill:none}.cls-3{fill:url(#Безымянный_градиент)}</style><clipPath id="clip-path"><path class="cls-1" d="M55.434 386.878V164.156A108.722 108.722 0 0 1 164.156 55.434h222.722A108.721 108.721 0 0 1 495.6 164.156v222.722A108.721 108.721 0 0 1 386.878 495.6H164.156A108.722 108.722 0 0 1 55.434 386.878M164.156 0C73.64 0 0 73.64 0 164.156v222.722c0 90.515 73.64 164.156 164.156 164.156h222.722c90.515 0 164.156-73.641 164.156-164.156V164.156C551.033 73.64 477.392 0 386.878 0z"/></clipPath><linearGradient id="Безымянный_градиент" y1="551.034" x2="1" y2="551.034" gradientTransform="matrix(0 -545.15 -545.15 0 300671.68 549.43)" gradientUnits="userSpaceOnUse"><stop offset="0" stop-color="#e09b3d"/><stop offset=".3" stop-color="#c74c4d"/><stop offset=".6" stop-color="#c21975"/><stop offset="1" stop-color="#7024c4"/></linearGradient><clipPath id="clip-path-2"><path class="cls-1" d="M188.434 275.517a87.082 87.082 0 1 1 87.083 87.083 87.083 87.083 0 0 1-87.083-87.082m-55.434 0c0 78.583 63.934 142.517 142.517 142.517S418.034 354.1 418.034 275.516 354.1 133 275.517 133 133 196.934 133 275.516"/></clipPath><clipPath id="clip-path-3"><path class="cls-1" d="M384.16 134.069a34.15 34.15 0 1 0 34.149-34.149 34.149 34.149 0 0 0-34.149 34.149"/></clipPath><linearGradient id="Безымянный_градиент_3" y1="551.034" y2="551.034" gradientTransform="matrix(0 -545.15 -545.15 0 300814.473 549.43)" xlink:href="#Безымянный_градиент"/></defs><g clip-path="url(#clip-path)"><path class="cls-3" d="M0 0h551.034v551.034H0z"/></g><g clip-path="url(#clip-path-2)"><path class="cls-3" d="M133 133h285.034v285.033H133z"/></g><g clip-path="url(#clip-path-3)"><path fill="url(#Безымянный_градиент_3)" d="M384.16 99.92h68.3v68.3h-68.3z"/></g></svg>