<svg width="100%" id="Слой_1" data-name="Слой 1" xmlns="http://www.w3.org/2000/svg" viewBox="0 0 512 360"><defs><style>.cls-3{fill:#be9132}</style><clipPath id="clip-path"><path fill="none" d="M0 0h512v360H0z"/></clipPath></defs><g clip-path="url(#clip-path)"><path class="cls-3" d="M331.756 201.251l-42.881 43.026c-17.389 17.45-47.985 17.826-65.75 0l-42.883-43.026L26.226 355.767A44.559 44.559 0 0 0 45 360h422a44.518 44.518 0 0 0 18.77-4.232z"/><path class="cls-3" d="M467 0H45a44.543 44.543 0 0 0-18.772 4.233L190.8 169.356c.011.011.024.013.035.024a.05.05 0 0 1 .013.026l53.513 53.69c5.684 5.684 17.586 5.684 23.27 0l53.5-53.681a.2.2 0 0 1 .024-.035.2.2 0 0 0 .035-.024L485.77 4.232A44.518 44.518 0 0 0 467 0M4.786 25.212A44.448 44.448 0 0 0 0 45v270a44.434 44.434 0 0 0 4.785 19.788L159.068 180zm502.428-.002L352.933 180l154.281 154.79A44.45 44.45 0 0 0 512 315V45a44.45 44.45 0 0 0-4.786-19.79"/></g></svg>