<svg data-name="Слой 1" xmlns="http://www.w3.org/2000/svg" viewBox="0 0 375.8 489.4"><defs><clipPath id="a"><path fill="none" d="M0 0h375.8v489.4H0z"/></clipPath></defs><g clip-path="url(#a)"><path d="M42.2 147v51.1h-3.4A38.837 38.837 0 0 0 0 236.9v213.7a38.837 38.837 0 0 0 38.8 38.8H337a38.837 38.837 0 0 0 38.8-38.8V236.8A38.837 38.837 0 0 0 337 198h-1v-51.1C336 65.9 270.1 0 189.1 0 108.1.1 42.2 66 42.2 147m168.7 206.2c-3 2.2-3.8 4.3-3.8 7.8.1 15.7.1 31.3.1 47 .3 6.5-3 12.9-8.8 15.8-13.7 7-27.4-2.8-27.4-15.8v-.1c0-15.7 0-31.4.1-47.1 0-3.2-.7-5.3-3.5-7.4-14.2-10.5-18.9-28.4-11.8-44.1 6.9-15.3 23.8-24.3 39.7-21.1 17.7 3.6 30 17.8 30.2 35.5 0 12.3-4.9 22.3-14.8 29.5M106.5 147a82.6 82.6 0 0 1 165.2 0v51.1H106.5z" fill="#be9132"/></g></svg>