<svg id="Capa_1" data-name="Capa 1" xmlns="http://www.w3.org/2000/svg" viewBox="0 0 308.988 302.853"><defs><style>.cls-1{fill:#be9132}</style></defs><path class="cls-1" d="M434.453 362.3s-16.626-20.247-55.421-26.814c-37.764-8.81-83.458-45.679-95.179-97.436-13.579-51.269 9.274-104.873 38.487-129.928 29.018-26.314 56.214-30.4 55.665-30.759.655.786-26.31 5.475-54.588 31.9-28.52 25.2-50.224 78.106-36.459 128.006 11.962 50.392 56.7 85.687 93.235 93.887a126.963 126.963 0 0 1 23.395 5.882c25.785 9.143 35.7 20.946 35.7 20.946z" transform="translate(-259.632 -59.45)"/><path class="cls-1" d="M393.808 362.3s16.626-20.247 55.42-26.814c37.764-8.81 83.458-45.679 95.179-97.436 13.579-51.269-9.274-104.873-38.486-129.928C476.9 81.81 449.705 77.72 450.259 77.365c-.655.786 26.31 5.475 54.584 31.9 28.519 25.2 50.227 78.106 36.458 128.006-11.957 50.392-56.7 85.687-93.234 93.887a126.939 126.939 0 0 0-23.394 5.882c-25.786 9.143-35.7 20.946-35.7 20.946zm-25.963-58.843s10.575 3.636 14.082 12.073a35.566 35.566 0 0 1 2.488 19.367s-10.6-5.509-14.146-11.225c-4.981-8.023-2.424-20.215-2.424-20.215zm-18.557 46.31s10.689 3.282 18.493-1.477a35.536 35.536 0 0 0 13.4-14.2s-11.812-1.78-18.041.753c-8.748 3.562-13.852 14.924-13.852 14.924zm2.096-55.399s9.591 5.31 11.538 14.05a34.85 34.85 0 0 1-.9 19.114s-9.291-7.118-11.741-13.238c-3.439-8.594 1.103-19.926 1.103-19.926zM325.59 335.9s9.764 4.99 18.1 1.722a34.858 34.858 0 0 0 15.35-11.417s-11.1-3.728-17.543-2.345c-9.046 1.947-15.907 12.04-15.907 12.04zm11.01-53.32s8.345 6.758 8.742 15.52a34.155 34.155 0 0 1-4.119 18.3s-7.753-8.451-9.076-14.778c-1.868-8.879 4.453-19.042 4.453-19.042zm-31.963 35.695s8.569 6.477 17.176 4.744a34.187 34.187 0 0 0 16.761-8.408s-10.077-5.487-16.533-5.248c-9.064.337-17.404 8.912-17.404 8.912zm19.419-49.998s6.908 7.941 5.8 16.467a33.45 33.45 0 0 1-7.081 16.958s-6.047-9.476-6.254-15.808c-.286-8.883 7.535-17.617 7.535-17.617zm-36.919 29.012s7.17 7.708 15.772 7.5a33.421 33.421 0 0 0 17.6-5.265s-8.788-7.01-15.059-7.876c-8.806-1.219-18.313 5.641-18.313 5.641zm26.963-45.231s5.32 8.84 2.793 16.879a32.779 32.779 0 0 1-9.722 15.16s-4.221-10.17-3.338-16.317c1.227-8.624 10.267-15.722 10.267-15.722zm-40.572 21.718s5.61 8.658 13.942 9.92a32.791 32.791 0 0 0 17.889-2.083s-7.292-8.261-13.194-10.164c-8.294-2.676-18.637 2.327-18.637 2.327zm33.703-39.344s3.625 9.438-.182 16.766a32.111 32.111 0 0 1-11.957 12.979s-2.345-10.535-.452-16.316c2.66-8.114 12.591-13.429 12.591-13.429zm-42.846 14.056s3.937 9.314 11.763 11.949a32.149 32.149 0 0 0 17.623 1.035s-5.628-9.214-11-12.061c-7.557-3.989-18.386-.923-18.386-.923zm39.06-32.531s1.894 9.726-3.02 16.149a31.494 31.494 0 0 1-13.757 10.494s-.469-10.568 2.349-15.824c3.942-7.376 14.428-10.819 14.428-10.819zm-43.745 6.274s2.219 9.658 9.321 13.535a31.512 31.512 0 0 0 16.832 4s-3.87-9.85-8.568-13.508c-6.609-5.143-17.585-4.027-17.585-4.027zm43.218-25.24s.173 9.709-5.671 15.075a30.854 30.854 0 0 1-15.058 7.783s1.352-10.275 4.96-14.871c5.067-6.455 15.769-7.987 15.769-7.987zm-43.286-1.391s.494 9.7 6.7 14.65a30.863 30.863 0 0 0 15.557 6.721s-2.053-10.165-5.966-14.5c-5.509-6.078-16.291-6.871-16.291-6.871zm45.998-17.981s-1.482 9.4-8.04 13.583a30.2 30.2 0 0 1-15.852 4.95s3.046-9.687 7.317-13.508c5.978-5.367 16.575-5.025 16.575-5.025zm-41.536-8.708s-1.175 9.446 3.963 15.278a30.281 30.281 0 0 0 13.875 9.137s-.254-10.161-3.3-15.009c-4.268-6.806-14.538-9.406-14.538-9.406zm47.616-10.184s-3.029 8.818-10.068 11.74a29.593 29.593 0 0 1-16.144 2.078s4.593-8.83 9.363-11.791c6.683-4.154 16.849-2.027 16.849-2.027zm-38.61-15.473s-2.733 8.917 1.238 15.419a29.657 29.657 0 0 0 11.83 11.179s1.487-9.845-.621-15.043c-2.973-7.299-12.447-11.555-12.447-11.555zm47.977-2.054s-4.424 8-11.712 9.617a28.99 28.99 0 0 1-15.933-.743s5.932-7.74 11.035-9.786c7.163-2.872 16.61.912 16.61.912zm-34.625-21.5s-4.157 8.142-1.437 15.092a29.044 29.044 0 0 0 9.523 12.8s3.109-9.251 1.952-14.626c-1.621-7.547-10.038-13.266-10.038-13.266zm46.996 5.9s-5.632 6.963-12.945 7.29a28.455 28.455 0 0 1-15.253-3.429s7.052-6.46 12.32-7.567c7.407-1.557 15.878 3.706 15.878 3.706zm-29.765-26.65s-5.4 7.149-3.951 14.323a28.509 28.509 0 0 0 7.01 13.976s4.576-8.4 4.377-13.781c-.279-7.561-7.436-14.518-7.436-14.518zm44.541 13.572s-6.63 5.761-13.744 4.83a27.9 27.9 0 0 1-14.138-5.9s7.905-5.035 13.183-5.2c7.41-.252 14.699 6.27 14.699 6.27zM324.03 81.736s-6.435 5.982-6.258 13.152a27.905 27.905 0 0 0 4.387 14.682s5.847-7.329 6.569-12.558c1.019-7.345-4.698-15.276-4.698-15.276zm40.916 20.541s-7.377 4.434-14.078 2.326a27.334 27.334 0 0 1-12.645-8.1s8.488-3.513 13.608-2.779c7.191 1.023 13.115 8.553 13.115 8.553zm-18.109-33.825s-7.22 4.681-8.272 11.626A27.364 27.364 0 0 0 340.3 95s6.892-6.08 8.476-11c2.232-6.921-1.939-15.548-1.939-15.548zM382.9 95.176s-7.875 3.024-13.984-.151a26.74 26.74 0 0 1-10.82-9.973s8.783-1.946 13.608-.368C378.462 86.9 382.9 95.176 382.9 95.176zM371.183 59.45s-7.77 3.285-9.963 9.815a26.826 26.826 0 0 0-.87 14.687s7.689-4.691 10.056-9.172c3.328-6.296.777-15.33.777-15.33zm.341 20.116s5.813 3.284 10.969 1.512a21.129 21.129 0 0 0 9.629-6.556s-6.65-2.545-10.609-1.875c-5.552.953-9.989 6.919-9.989 6.919z" transform="translate(-259.632 -59.45)"/><path class="cls-1" d="M460.407 303.457s-10.579 3.636-14.082 12.073a35.565 35.565 0 0 0-2.488 19.367s10.6-5.509 14.145-11.225c4.986-8.023 2.425-20.215 2.425-20.215zm18.561 46.31s-10.693 3.282-18.5-1.477a35.581 35.581 0 0 1-13.4-14.2s11.812-1.78 18.041.753c8.751 3.562 13.859 14.924 13.859 14.924zm-2.096-55.399s-9.595 5.31-11.538 14.05a34.8 34.8 0 0 0 .9 19.114s9.287-7.118 11.737-13.238c3.439-8.594-1.099-19.926-1.099-19.926zm25.79 41.532s-9.764 4.99-18.1 1.722a34.856 34.856 0 0 1-15.354-11.417s11.1-3.728 17.543-2.345c9.049 1.947 15.911 12.04 15.911 12.04zm-11.006-53.32s-8.349 6.758-8.742 15.52a34.132 34.132 0 0 0 4.115 18.3s7.753-8.451 9.076-14.778c1.868-8.879-4.449-19.042-4.449-19.042zm31.958 35.695s-8.572 6.477-17.175 4.744a34.161 34.161 0 0 1-16.757-8.408s10.077-5.487 16.529-5.248c9.067.337 17.403 8.912 17.403 8.912zM504.2 268.277s-6.912 7.941-5.8 16.467a33.411 33.411 0 0 0 7.081 16.958s6.042-9.476 6.249-15.808c.287-8.883-7.53-17.617-7.53-17.617zm36.919 29.012s-7.174 7.708-15.772 7.5a33.444 33.444 0 0 1-17.605-5.265s8.792-7.01 15.058-7.876c8.808-1.219 18.319 5.641 18.319 5.641zm-26.96-45.231s-5.319 8.84-2.8 16.879a32.78 32.78 0 0 0 9.722 15.16s4.221-10.17 3.338-16.317c-1.227-8.624-10.26-15.722-10.26-15.722zm40.565 21.718s-5.61 8.658-13.942 9.92a32.794 32.794 0 0 1-17.89-2.083s7.293-8.261 13.2-10.164c8.293-2.676 18.632 2.327 18.632 2.327zm-33.7-39.344s-3.629 9.438.178 16.766a32.112 32.112 0 0 0 11.957 12.979s2.345-10.535.452-16.316c-2.662-8.114-12.587-13.429-12.587-13.429zm42.847 14.056s-3.942 9.314-11.767 11.949a32.134 32.134 0 0 1-17.619 1.035s5.624-9.214 11-12.061c7.553-3.989 18.386-.923 18.386-.923zm-39.065-32.531s-1.893 9.726 3.025 16.149a31.5 31.5 0 0 0 13.753 10.494s.469-10.568-2.345-15.824c-3.946-7.376-14.433-10.819-14.433-10.819zm43.751 6.274s-2.223 9.658-9.329 13.535a31.512 31.512 0 0 1-16.832 4s3.87-9.85 8.572-13.508c6.608-5.143 17.589-4.027 17.589-4.027zm-43.223-25.24s-.169 9.709 5.675 15.075a30.834 30.834 0 0 0 15.054 7.783s-1.344-10.275-4.96-14.871c-5.067-6.455-15.769-7.987-15.769-7.987zm43.286-1.391s-.494 9.7-6.692 14.65a30.886 30.886 0 0 1-15.561 6.721s2.054-10.165 5.966-14.5c5.505-6.078 16.287-6.871 16.287-6.871zm-45.998-17.981s1.482 9.4 8.04 13.583a30.21 30.21 0 0 0 15.852 4.95s-3.047-9.687-7.318-13.508c-5.978-5.367-16.574-5.025-16.574-5.025zm41.541-8.708s1.17 9.446-3.968 15.278a30.281 30.281 0 0 1-13.875 9.137s.253-10.161 3.3-15.009c4.268-6.806 14.543-9.406 14.543-9.406zm-47.621-10.184s3.033 8.818 10.068 11.74a29.589 29.589 0 0 0 16.143 2.078s-4.593-8.83-9.358-11.791c-6.688-4.154-16.853-2.027-16.853-2.027zm38.613-15.473s2.733 8.917-1.238 15.419a29.658 29.658 0 0 1-11.83 11.179s-1.487-9.845.625-15.043c2.966-7.299 12.443-11.555 12.443-11.555zm-47.98-2.054s4.424 8 11.712 9.617a28.99 28.99 0 0 0 15.933-.743s-5.936-7.74-11.036-9.786c-7.162-2.872-16.609.912-16.609.912zm34.625-21.5s4.161 8.142 1.44 15.092a29.043 29.043 0 0 1-9.523 12.8s-3.109-9.251-1.956-14.626c1.622-7.547 10.039-13.266 10.039-13.266zm-47 5.9s5.637 6.963 12.945 7.29A28.44 28.44 0 0 0 523 129.46s-7.052-6.46-12.32-7.567c-7.401-1.556-15.88 3.707-15.88 3.707zm29.769-26.65s5.4 7.149 3.95 14.323a28.5 28.5 0 0 1-7.009 13.976s-4.576-8.4-4.377-13.781c.279-7.561 7.436-14.518 7.436-14.518zm-44.536 13.572s6.629 5.761 13.739 4.83a27.873 27.873 0 0 0 14.138-5.9s-7.9-5.035-13.183-5.2c-7.41-.252-14.694 6.27-14.694 6.27zm24.193-30.786s6.431 5.982 6.253 13.152a27.9 27.9 0 0 1-4.386 14.682s-5.847-7.329-6.565-12.558c-1.028-7.345 4.698-15.276 4.698-15.276zm-40.92 20.541s7.377 4.434 14.078 2.326a27.334 27.334 0 0 0 12.645-8.1s-8.483-3.513-13.608-2.779c-7.192 1.023-13.115 8.553-13.115 8.553zm18.109-33.825s7.22 4.681 8.276 11.626A27.331 27.331 0 0 1 487.951 95s-6.888-6.08-8.476-11c-2.231-6.921 1.94-15.548 1.94-15.548zM445.35 95.176s7.875 3.024 13.984-.151a26.741 26.741 0 0 0 10.82-9.973s-8.779-1.946-13.6-.368C449.79 86.9 445.35 95.176 445.35 95.176zm11.719-35.726s7.774 3.285 9.967 9.815a26.845 26.845 0 0 1 .866 14.687s-7.684-4.691-10.056-9.172c-3.325-6.296-.777-15.33-.777-15.33zm-.342 20.116s-5.813 3.284-10.969 1.512a21.128 21.128 0 0 1-9.629-6.556s6.654-2.545 10.609-1.875c5.553.953 9.989 6.919 9.989 6.919z" transform="translate(-259.632 -59.45)"/></svg>